<svg width="58" height="62" viewBox="0 0 58 62" fill="none" xmlns="http://www.w3.org/2000/svg">
<path d="M25.2062 61.0522C24.9087 60.5329 24.5207 59.9118 24.0523 59.3442C23.6903 58.9372 23.5104 58.3859 23.1699 57.9415C22.9357 57.6577 22.7117 57.529 22.2999 57.6408C21.8881 57.7526 21.4017 57.8215 20.9752 57.5267C20.8259 57.4409 20.6019 57.3122 20.3824 57.435C20.3021 57.4883 20.0939 57.4185 20.0781 57.3597C19.647 56.8135 18.9208 56.6948 18.4467 56.2234C18.2657 56.0199 18.0259 55.8324 17.9411 55.6343C17.7929 55.2008 17.3664 54.9061 17.2985 54.4192C17.251 54.2426 17.0915 54.0017 16.9851 53.841C16.6921 53.5732 16.7148 53.188 16.7102 52.9366C16.6955 52.5301 16.3867 52.2033 16.5858 51.7703C16.6503 51.658 16.2713 51.5399 16.0632 51.47C15.4172 51.298 14.959 50.8855 14.3775 50.6012C14.02 50.4456 13.9522 49.9587 13.5087 49.9528C13.3537 49.9633 13.52 49.7602 13.3922 49.637C13.046 49.2889 12.8231 48.8125 12.5573 48.4109C12.1478 47.8273 12.3265 47.084 11.917 46.5003C11.8638 46.42 11.9442 46.3666 11.9871 46.2918C12.2179 45.9765 11.9736 45.5375 12.2417 45.2437C12.1297 45.1793 12.1784 45.0082 11.9917 44.901C11.3785 44.499 10.7439 44.1344 10.211 43.679C9.4757 43.0575 8.80485 42.3237 8.49262 41.3979C8.41343 41.1035 8.41457 40.7558 8.39421 40.4455C8.39987 40.3493 8.44286 40.2744 8.38969 40.1941C8.08651 39.7711 8.45645 39.3865 8.51641 39.0228C8.52207 38.9265 8.60239 38.8731 8.4904 38.8088C7.71207 38.2621 7.1962 37.5179 6.70184 36.7362C6.2448 35.976 5.86809 35.1624 5.71085 34.226C5.65316 33.8943 5.59547 33.5626 5.63394 33.2363C5.68824 32.9689 5.6249 32.7335 5.44389 32.5299C5.00721 32.08 4.57054 31.6301 4.3375 30.9986C4.26849 30.8594 4.18365 30.6613 4.05581 30.5381C3.62479 29.9919 3.72322 29.302 3.46869 28.7079C3.35217 28.3921 3.51396 27.9376 3.57392 27.574C3.6667 26.9803 3.59769 26.8411 3.05353 26.5783C2.58405 26.3583 2.2967 25.9942 2.03085 25.5926C1.90867 25.3732 1.66318 25.2819 1.51951 25.0998C1.42901 24.9981 1.30117 24.8749 1.30683 24.7786C1.21294 24.0777 0.846407 23.4192 0.693691 22.7343C0.424456 21.7336 0.40637 20.7279 0.447113 19.7063C0.459565 19.166 0.685837 18.5992 0.853278 18.0485C0.97207 17.6688 1.20286 17.3535 1.28432 16.9524C1.31713 16.7225 1.73459 16.5144 1.86922 16.1936C2.17581 15.5735 2.73807 15.1998 3.27884 14.8635C3.74494 14.4843 4.29137 14.0517 4.9645 14.0901C5.19415 14.1225 5.41928 13.9034 5.70777 13.9199C6.32206 13.9742 6.91486 14.0659 7.50201 14.2539C7.84366 14.3506 8.03146 14.1102 8.2351 13.9286C8.7012 13.5494 9.20464 13.1916 9.68658 12.8713C10.672 12.1933 11.6947 11.5366 12.7864 11.0192C13.3215 10.7792 13.8623 10.4429 14.3974 10.2029C14.8951 9.94143 15.4676 9.72286 15.9122 9.38109C16.7369 8.8098 17.6782 8.55428 18.4972 8.07928C19.3593 7.52943 20.2689 7.15618 21.1841 6.68665C22.458 6.02502 23.7318 5.36339 24.9842 4.73918C25.7603 4.339 26.6427 4.09945 27.3713 3.52269C27.998 3.03672 28.7899 2.69542 29.5389 2.42894C30.5446 2.06117 31.4972 1.61308 32.5029 1.24531C33.3695 0.946896 34.1829 0.56817 35.1603 0.681802C35.3527 0.692756 35.5608 0.762573 35.7045 0.944641C35.9918 1.30878 36.2419 1.65147 36.4919 1.99416C36.7792 2.3583 36.8256 2.88259 37.3166 3.06512C37.3539 3.08657 37.3426 3.27913 37.3958 3.35944C37.5496 3.69666 37.7035 4.03387 37.9003 4.29625C38.225 4.68183 38.4478 5.15822 38.6549 5.57575C38.9309 6.13245 39.2443 6.71059 39.5418 7.22987C39.8925 7.82947 40.1843 8.44503 40.535 9.04462C40.8009 9.44618 41.0079 9.8637 41.1934 10.3186C41.4005 10.7362 41.4842 11.2819 41.9107 11.5767C42.06 11.6625 41.8994 11.7693 41.931 11.887C42.2433 12.8128 42.7964 13.5785 43.2908 14.3602C43.4345 14.5423 43.439 14.7937 43.5239 14.9917C43.715 15.3504 43.9062 15.709 44.1189 16.0303C44.5386 16.7691 44.8192 17.5772 45.2604 18.2785C45.6642 18.9584 45.9878 19.6917 46.2955 20.3662C46.55 20.9603 46.7242 21.6078 47.0964 22.1699C47.5964 22.8553 47.7378 23.7328 48.179 24.4342C48.5512 24.9963 48.6824 25.7187 49.0173 26.2594C49.3895 26.8216 49.5422 27.5065 49.8929 28.1061C50.0682 28.4059 50.1044 28.775 50.2798 29.0748C50.7685 29.9528 51.1769 30.8841 51.6068 31.778C51.936 32.415 52.281 33.1109 52.5514 33.7639C52.8274 34.3206 53.0231 34.9307 53.2776 35.5248C53.6012 36.2581 53.9247 36.9914 54.2483 37.7247C54.6782 38.6186 55.1454 39.5339 55.6341 40.4119C56.0379 41.0918 56.3027 41.841 56.53 42.5689C56.6782 43.0023 56.5278 43.2643 56.1691 43.4564C56.0085 43.5631 56.0243 43.622 56.013 43.8146C56.0221 44.3174 56.0526 44.7829 56.0831 45.2483C56.1985 45.9118 56.1374 46.6231 56.4881 47.2227C56.5945 47.3834 56.7166 47.6028 56.9361 47.4801C57.0538 47.4482 57.1771 47.3199 57.2834 47.4806C57.3524 47.6197 57.2664 47.7694 57.1431 47.8976C56.5537 48.405 55.7731 48.5538 55.1362 48.8846C54.4993 49.2154 53.7933 49.4071 53.2684 49.8022C53.0862 49.9464 52.8351 49.9514 52.6745 50.0582C52.4335 50.2184 52.1552 50.3571 51.8984 50.4584C51.1653 50.7837 50.4695 51.1305 49.7738 51.4773C49.1368 51.8081 48.4411 52.1549 47.7668 52.4642C46.9161 52.8215 46.0438 53.2162 45.2463 53.6538C45.0268 53.7766 44.701 53.7387 44.46 53.8988C43.6783 54.3953 42.7958 54.6349 41.9824 55.0136C41.3082 55.3229 40.5751 55.6483 39.9008 55.9577C38.9267 56.4432 37.9052 56.7521 36.9311 57.2376C36.1765 57.6003 35.4219 57.9631 34.6142 58.2455C33.7261 58.5814 32.8539 58.9761 32.019 59.3922C31.5212 59.6537 30.9646 59.9311 30.4566 60.0374C29.8683 60.1971 29.3491 60.496 28.7608 60.6557C28.3863 60.7889 28.0118 60.9221 27.6906 61.1357C27.1871 61.4934 26.5355 61.4177 26.0321 61.7754C25.9461 61.9251 25.3702 61.5445 25.2062 61.0522ZM42.4678 50.3656C42.4678 50.3656 42.4463 50.403 42.409 50.3816C42.3241 50.1836 42.1692 50.1941 42.0085 50.3008C41.8908 50.3328 41.8264 50.445 41.6872 50.5144C40.9111 50.9145 40.0502 51.1167 39.3115 51.5383C39.1723 51.6077 39.0863 51.7573 38.9313 51.7678C38.0862 52.0288 37.2887 52.4664 36.4753 52.8451C36.3361 52.9145 36.2184 52.9464 36.0793 53.0158C35.1697 53.389 34.276 53.8212 33.4037 54.2158C33.0078 54.3865 32.6118 54.5572 32.2159 54.7278C31.7826 54.877 31.3651 55.0851 30.873 55.2503C29.6908 55.666 28.5934 56.2797 27.5707 56.9363C27.1906 57.1658 27.1464 57.5883 27.108 57.9146C27.0752 58.1446 27.4123 57.9899 27.5831 58.0383C27.5616 58.0757 27.5775 58.1346 27.556 58.172C26.9519 58.2728 26.8274 58.7487 26.7403 59.2461C26.7346 59.3424 26.7075 59.4761 26.7448 59.4975C26.8195 59.5404 26.9371 59.5085 27.0175 59.4551C27.2641 59.1987 27.5741 59.1777 27.884 59.1567C28.0979 59.1302 28.3275 59.1626 28.4508 59.0344C28.9328 58.7141 29.4837 58.5329 29.9815 58.2715C30.8967 57.8019 31.8278 57.3913 32.7057 56.9003C33.5248 56.4253 34.4128 56.0895 35.2477 55.6733C35.922 55.364 36.5963 55.0546 37.1959 54.7023C37.9346 54.2807 38.7209 54.0357 39.4596 53.614C39.8986 53.3686 40.4337 53.1286 40.9631 52.9848C41.2573 52.905 41.5888 52.8466 41.8297 52.6864C42.5311 52.2433 43.2801 51.9769 44.0347 51.6141C44.7677 51.2888 45.4793 51.0008 46.2124 50.6755C47.0043 50.3342 47.8019 49.8966 48.647 49.6356C49.1391 49.4704 49.5781 49.2249 50.0544 49.0009C51.7988 48.2115 53.5908 47.5987 55.3353 46.8093C55.4745 46.74 55.8376 46.7993 55.7426 46.4461C55.6951 46.2695 55.6849 46.1144 55.6747 45.9592C55.634 45.3386 55.4473 45.2314 54.8964 45.4126C54.4631 45.5618 54.0298 45.711 53.575 45.8976C52.8046 46.2015 52.0715 46.5268 51.2853 46.7718C50.5363 47.0383 49.8406 47.3851 49.129 47.673C48.4977 47.9076 47.9354 48.2813 47.294 48.3607C47.225 48.2215 47.2306 48.1252 47.4445 48.0987C47.9151 47.971 48.2952 47.7415 48.75 47.5548C49.2851 47.3148 49.836 47.1337 50.3123 46.9096C51.1042 46.5683 51.8747 46.2644 52.6824 45.982C53.394 45.6941 54.143 45.4276 54.8545 45.1397C55.229 45.0064 55.806 45.0393 55.5198 44.3275C55.5039 44.2686 55.5956 44.0226 55.5209 43.9798C55.4304 43.878 55.2641 44.081 55.2053 44.097C54.9383 44.0432 54.8093 44.2677 54.6113 44.353C53.7391 44.7477 52.8827 45.2013 52.0104 45.596C51.4538 45.8734 50.8972 46.1508 50.2874 46.3479C49.7953 46.5131 49.3405 46.6997 48.9016 46.9452C48.543 47.1373 48.1843 47.3294 47.7884 47.5001C46.9376 47.8574 46.1774 48.3164 45.3266 48.6737C44.7327 48.9297 44.1704 49.3034 43.5607 49.5005C43.1862 49.6337 42.9181 49.9276 42.5063 50.0394C42.3671 50.1087 42.3773 50.2639 42.4678 50.3656ZM12.018 28.6925C12.0587 29.313 12.6617 29.5599 12.6865 30.1216C12.7227 30.4908 13.0904 30.8015 13.1854 31.1547C13.3596 31.8022 13.871 32.295 14.0237 32.98C14.0339 33.1351 14.2839 33.4778 14.733 33.3874C15.5724 33.2227 16.4436 33.1757 17.2864 33.6102C18.1292 34.0446 18.7525 34.6017 19.1881 35.3994C19.2571 35.5385 19.2831 35.7525 19.5455 35.555C19.6474 35.4642 19.8397 35.4751 19.9302 35.5769C20.058 35.7001 20.2017 35.8821 20.0942 36.0692C19.9653 36.2937 19.8736 36.5397 19.5953 36.6784C19.2152 36.9079 18.9007 36.6775 18.6824 36.4525C18.5013 36.249 18.6088 36.0619 18.791 35.9177C18.8713 35.8643 18.8555 35.8055 18.8181 35.784C18.5941 35.6553 18.5149 35.361 18.3498 35.2164C17.6834 34.734 16.9526 34.364 16.1302 34.2398C15.767 34.1805 15.4039 34.1212 15.0351 34.1582C14.8212 34.1846 14.6764 34.3503 14.8043 34.4735C15.1075 34.8965 15.3676 35.3943 15.6493 35.8547C15.9842 36.3954 16.1426 36.9841 16.4559 37.5622C16.7693 38.1404 17.0827 38.7185 17.353 39.3715C17.4537 39.6284 17.7365 39.7411 17.913 39.6932C18.4481 39.4532 18.9549 39.6946 19.4516 39.7808C20.0444 39.8726 20.7277 40.066 21.1859 40.4786C21.4257 40.6661 21.6983 40.6237 21.9008 40.7898C22.247 41.1379 22.6362 41.4113 22.902 41.8128C23.0457 41.9949 23.152 42.1555 23.3817 42.1879C23.6487 42.2418 23.6905 42.5146 23.6204 42.7232C23.5231 43.0654 23.2448 43.2041 22.9665 43.3428C22.6882 43.4815 22.4269 43.3314 22.342 43.1334C22.2572 42.9353 21.9857 42.6301 22.3658 42.4005C22.4461 42.3471 22.4359 42.192 22.3239 42.1277C22.1214 41.9616 21.9778 41.7795 21.7753 41.6134C21.4234 41.3615 21.0501 41.147 20.6768 40.9326C20.3408 40.7395 19.9346 40.7551 19.5772 40.5995C19.1823 40.4224 18.7762 40.4379 18.3327 40.432C18.1992 40.4051 18.0816 40.437 18.0012 40.4904C17.9368 40.6026 17.9469 40.7578 18.1178 40.8061C18.5658 41.0635 18.516 41.5823 18.8033 41.9465C19.0375 42.2303 19.1857 42.6638 19.3984 42.985C19.8452 43.5901 20.0138 44.3339 20.4821 44.9015C20.7163 45.1854 20.9822 45.5869 21.0715 46.0364C21.0874 46.0952 21.2095 46.3147 21.3804 46.3631C22.3148 46.5516 23.2391 46.5849 24.1679 46.8696C24.9259 47.106 25.496 47.5829 26.168 47.9689C26.616 48.2263 26.9135 48.7456 27.1149 49.2594C27.2156 49.5163 27.2574 49.7891 27.6262 49.7522C27.7224 49.7577 27.7541 49.8754 27.7699 49.9342C27.8864 50.25 27.7405 50.7634 27.4249 50.8806C27.1307 50.9605 26.8094 51.174 26.5379 50.8688C26.2449 50.6009 26.3207 50.2961 26.5673 50.0396C26.7121 49.874 26.6861 49.66 26.5741 49.5957C26.2596 49.3652 26.047 49.044 25.7913 48.7976C25.3546 48.3476 24.7833 48.2185 24.3036 47.8434C24.0106 47.5755 23.6362 47.7088 23.316 47.5746C22.825 47.3921 22.4302 47.215 21.8634 47.3373C21.5693 47.4172 21.6813 47.4815 21.6915 47.6367C21.7865 47.9898 22.058 48.2951 22.1745 48.6109C22.4494 49.5153 22.9868 50.2221 23.4223 51.0198C23.9642 51.978 24.5864 52.8829 25.1498 53.8037C25.5378 54.4247 26.0706 54.8801 26.5016 55.4264C26.5921 55.5281 26.6826 55.6299 26.6928 55.785C26.7403 55.9616 26.7765 56.3308 27.1137 56.1761C27.3705 56.0748 27.6805 56.0538 27.8626 55.9096C28.366 55.5519 28.9758 55.3547 29.5482 55.1362C30.5596 54.6721 31.5495 54.2455 32.5609 53.7814C33.1549 53.5255 33.7488 53.2695 34.3269 52.9546C35.0657 52.533 35.8304 52.3254 36.585 51.9626C37.3769 51.6213 38.1157 51.1997 38.8703 50.837C39.7425 50.4423 40.5559 50.0635 41.4282 49.6688C42.0809 49.3969 42.7337 49.1249 43.3333 48.7727C43.9702 48.4419 44.6015 48.2073 45.2169 47.9139C45.8912 47.6045 46.5654 47.2952 47.2397 46.9858C47.7748 46.7458 48.2884 46.5432 48.8235 46.3032C49.5193 45.9564 50.2467 45.7273 50.8678 45.3377C51.9494 44.6651 53.1316 44.2494 54.1916 43.6142C54.6736 43.2939 55.2562 43.2305 55.7008 42.8887C55.9044 42.7071 55.9101 42.6108 55.8094 42.3539C55.6771 41.9793 55.3252 41.7274 55.2675 41.3957C55.1318 40.4219 54.5571 39.6936 54.2019 38.8426C53.9632 38.3074 53.7833 37.7561 53.4858 37.2369C53.0978 36.6158 52.9077 35.9095 52.5412 35.251C52.212 34.614 51.9631 33.9236 51.6339 33.2866C51.4427 32.9279 51.4065 32.5588 51.135 32.2535C50.954 32.05 50.7787 31.7502 50.7368 31.4773C50.6373 30.8727 50.2221 30.3854 50.0049 29.8127C49.8193 29.3577 49.5535 28.9562 49.368 28.5012C49.0128 27.6502 48.5987 26.8152 48.1847 25.9801C47.8555 25.3431 47.6066 24.6527 47.2774 24.0157C47.0704 23.5982 46.9437 23.1273 46.6778 22.7257C46.1246 21.96 45.8871 21.0771 45.5103 20.2635C45.059 19.407 44.6291 18.5131 44.2207 17.5817C44.0985 17.3622 43.896 17.1962 43.8485 17.0196C43.3508 15.6388 42.388 14.2895 41.741 12.8229C41.216 11.5758 40.4932 10.414 39.8506 9.19885C39.7658 9.00081 39.6594 8.84019 39.5746 8.64215C39.0915 7.66793 38.3302 6.83242 38.0078 5.75142C37.9919 5.69255 37.9014 5.5908 37.8641 5.56935C37.6141 5.22666 37.2249 4.95333 37.2747 4.4345C37.2803 4.33822 37.2645 4.27936 37.2487 4.2205C36.9353 3.64235 36.579 3.13904 36.2441 2.59831C36.0156 2.2182 35.8086 1.80068 35.5427 1.39912C35.4205 1.17964 35.218 1.01354 34.9986 1.13628C34.4849 1.33888 33.977 1.44519 33.426 1.62634C32.5221 1.90331 31.6499 2.298 30.7991 2.65528C29.9269 3.04998 29.0761 3.40726 28.2627 3.78599C27.8668 3.95664 27.524 4.20761 27.128 4.37826C26.5126 4.67166 25.8813 4.90619 25.2817 5.25846C25.1426 5.32781 25.0351 5.5149 24.8801 5.52539C24.4151 5.55687 24.0135 5.82381 23.6334 6.05333C23.1141 6.3522 22.5949 6.65108 22.0224 6.86964C21.8833 6.939 21.7599 7.06722 21.605 7.07772C21.4285 7.12563 21.3957 7.3556 21.2407 7.3661C20.6422 7.37065 20.2666 7.8516 19.7157 8.03275C19.0844 8.26728 18.4418 8.69438 17.8264 8.98778C17.1679 9.35601 16.419 9.62249 15.7979 10.0122C14.6146 10.7756 13.3837 11.3624 12.1845 12.0669C11.1245 12.702 10.0429 13.3746 8.96139 14.0472C8.42063 14.3835 8.43646 14.4424 8.95346 14.8389C8.9908 14.8604 9.02813 14.8818 9.06546 14.9033C9.46481 15.3317 9.82116 15.835 10.199 16.3009C10.561 16.708 10.6662 17.2163 10.9694 17.6393C11.1504 17.8428 10.957 18.1796 11.1968 18.3671C11.5486 18.619 11.5475 18.9667 11.4343 19.2501C11.3427 19.496 11.0214 19.7096 10.7114 19.7306C10.4976 19.757 10.2895 19.6872 10.1831 19.5266C10.0768 19.366 10.0881 19.1734 10.2329 19.0078C10.3132 18.9544 10.2974 18.8955 10.303 18.7992C10.0282 17.8948 9.83359 16.937 9.10391 16.2192C8.93874 16.0746 8.75207 15.9674 8.66723 15.7693C8.47604 15.4107 8.1129 15.3513 7.85723 15.1049C7.76672 15.0032 7.64907 15.0351 7.45109 15.1204C7.25311 15.2058 7.0868 15.4088 6.85149 15.4727C6.35937 15.6379 6.35371 15.7342 6.59807 16.1731C6.85826 16.671 7.13995 17.1314 7.34131 17.6452C8.03139 19.0369 8.44316 20.5674 9.03141 22.05C9.14793 22.3657 9.3346 22.473 9.56991 22.4091C10.9331 22.1969 11.8981 22.8508 12.7285 23.8255C12.8563 23.9487 12.9412 24.1467 13.0532 24.2111C13.5068 24.3722 13.5272 24.6824 13.3711 25.0406C13.2794 25.2866 12.7443 25.5266 12.483 25.3765C12.1843 25.2049 12.0033 25.0014 12.2183 24.6272C12.2612 24.5524 12.2454 24.4935 12.2137 24.3758C11.9219 23.7602 11.3019 23.8022 10.8166 23.5234C10.4806 23.3304 10.053 23.3833 9.7328 23.2491C9.30065 23.0506 9.43866 23.329 9.42735 23.5216C9.41037 23.8104 9.6932 23.9231 9.73505 24.196C9.79274 24.5277 9.9251 24.9023 10.079 25.2396C10.424 25.9354 10.769 26.6313 11.0337 27.3806C11.1344 27.6375 11.3369 27.8036 11.5292 27.8145C11.9886 27.8793 12.4852 27.9656 12.923 28.0678C13.7771 28.3096 14.6369 28.4552 15.249 29.2049C15.3926 29.387 15.5782 29.8419 16.1133 29.6019C16.4504 29.4472 16.6834 30.0788 16.4526 30.3941C16.2433 30.672 15.9707 30.7144 15.6607 30.7354C15.1958 30.7669 15.0464 30.6811 15.0906 30.2585C15.0804 30.1034 15.086 30.0071 14.9367 29.9213C14.6007 29.7283 14.345 29.4819 14.0305 29.2515C13.4762 28.8335 12.7657 28.7737 12.018 28.6925ZM56.2732 47.5969C56.2098 47.3615 55.927 47.2487 55.901 47.0347C55.8851 46.9759 55.8105 46.933 55.634 46.9809C55.2165 47.189 54.8579 47.3811 54.4246 47.5303C53.515 47.9035 52.584 48.3142 51.6744 48.6874C50.2727 49.2259 48.9185 49.9409 47.4795 50.4579C46.5914 50.7937 45.735 51.2473 44.8843 51.6045C44.0708 51.9833 43.2574 52.362 42.3908 52.6604C42.1555 52.7243 41.8829 52.7667 41.7222 52.8735C41.4383 53.1085 41.1226 53.2258 40.7855 53.3804C40.0739 53.6684 39.4155 54.0366 38.7039 54.3245C37.7355 54.7137 36.8146 55.2795 35.8247 55.7062C35.4876 55.8609 35.2251 56.0584 34.8721 56.1543C34.5995 56.1967 34.337 56.3943 34.0587 56.533C33.561 56.7944 33.01 56.9756 32.5654 57.3174C32.3029 57.5149 31.9715 57.5733 31.6343 57.728C30.9601 58.0374 30.2858 58.3468 29.6489 58.6776C29.0708 58.9924 28.4768 59.2484 27.8671 59.4455C27.5514 59.5628 27.2675 59.7978 26.8613 59.8133C26.6102 59.8183 26.3681 60.3262 26.5219 60.6634C26.6226 60.9203 26.8636 60.7601 27.0401 60.7122C27.6068 60.59 28.1046 60.3285 28.6397 60.0885C29.512 59.6938 30.3786 59.3954 31.2135 58.9792C31.6309 58.7712 32.0325 58.5042 32.4817 58.4139C33.1503 58.2008 33.7442 57.9448 34.3596 57.6514C35.0339 57.342 35.6708 57.0112 36.3236 56.7393C37.1743 56.382 38.0194 56.121 38.8385 55.646C38.9992 55.5392 39.1225 55.411 39.3363 55.3845C40.0207 55.2303 40.6418 54.8406 41.2946 54.5687C42.2257 54.158 43.1567 53.7473 44.0878 53.3367C44.6602 53.1181 45.2859 52.9799 45.8051 52.681C45.8855 52.6276 45.8436 52.3547 46.0676 52.4834C46.2543 52.5906 46.3991 52.425 46.5756 52.3771C47.1853 52.18 47.5983 51.7205 48.1865 51.5608C48.7748 51.4011 49.2839 50.947 49.8722 50.7873C50.5408 50.5743 51.1404 50.222 51.7773 49.8912C52.2751 49.6297 52.8102 49.3897 53.3238 49.1871C54.2334 48.8139 55.074 48.3014 56.0209 47.9496C56.2347 47.9232 56.358 47.795 56.2732 47.5969ZM4.19504 25.542C4.12037 25.4991 4.12037 25.4991 4.08304 25.4777C4.31835 25.4138 4.1645 25.0766 4.34098 25.0287C4.80143 24.7458 5.05937 24.2968 5.48248 23.9924C5.5843 23.9016 5.66463 23.8482 5.51529 23.7624C5.27546 23.5749 5.3886 23.2915 5.39991 23.099C5.48364 22.0025 5.31623 20.911 5.45879 19.7985C5.53573 19.146 5.57533 18.472 5.65227 17.8195C5.71224 17.4558 5.7722 17.0921 5.7575 16.6856C5.70095 16.0061 5.71906 15.3696 6.48948 15.0657C6.54831 15.0497 6.5698 15.0123 6.5913 14.9749C6.67162 14.9215 6.71461 14.8466 6.66144 14.7663C6.62977 14.6486 6.53361 14.6431 6.43744 14.6377C6.24512 14.6267 6.12181 14.7549 5.95098 14.7065C5.01087 14.6144 4.1918 15.0894 3.50056 15.6876C3.29693 15.8692 3.0503 16.1256 2.83082 16.2484C2.42921 16.5153 2.25159 16.9109 2.03663 17.2851C1.7357 17.8089 1.54676 18.3971 1.41099 19.0656C1.24694 20.2155 1.25937 21.3175 1.48561 22.393C1.58064 22.7462 1.75032 23.1423 1.84535 23.4955C1.94037 23.8486 2.25487 24.0791 2.3284 24.4697C2.40759 24.764 2.6576 25.1067 2.9506 25.3745C3.07844 25.4977 3.3081 25.5301 3.39294 25.7282C3.44045 25.9048 3.62711 26.012 3.74477 25.9801C3.98008 25.9162 4.07172 25.6702 4.19504 25.542ZM25.0773 59.6344C25.1779 59.8913 25.3533 60.1911 25.4698 60.5069C25.5015 60.6246 25.6293 60.7478 25.7153 60.5981C25.8284 60.3148 25.9416 60.0314 25.9585 59.7426C25.9597 59.3949 26.057 59.0526 26.1486 58.8067C26.3104 58.3522 26.5469 57.9406 26.5751 57.4592C26.5865 57.2666 26.5389 57.0901 26.4111 56.9668C25.8624 56.4526 25.6939 55.7088 25.1882 55.1197C24.7357 54.6109 24.428 53.9365 24.0185 53.3529C23.6994 52.871 23.4392 52.3732 23.1202 51.8913C22.8012 51.4094 22.5252 50.8527 22.1688 50.3494C21.972 50.087 21.9731 49.7393 21.7763 49.477C21.3984 49.0111 21.2989 48.4065 21.0975 47.8926C20.9968 47.6357 20.9923 47.3843 20.5432 47.4747C20.1529 47.549 19.7626 47.6234 19.3508 47.7352C19.0781 47.7776 18.8688 48.0555 18.612 48.1568C18.5905 48.1942 18.5475 48.2691 18.5475 48.2691C18.7286 48.4726 18.5193 48.7505 18.7964 48.9595C18.9458 49.0453 19.0838 49.3236 19.2059 49.5431C19.344 49.8214 19.2783 50.2814 19.7591 50.3088C19.7965 50.3302 19.8123 50.3891 19.8282 50.448C20.0815 51.3898 20.5703 52.2677 21.0646 53.0494C21.5963 53.8525 21.9889 54.725 22.4991 55.5655C22.9403 56.2668 23.403 56.9308 23.7424 57.7229C24.1089 58.3814 24.6146 58.9705 25.0773 59.6344ZM20.4979 46.6027C20.2649 45.9711 19.7694 45.5372 19.6699 44.9326C19.654 44.8737 19.6382 44.8148 19.6008 44.7934C19.2388 44.3864 19.016 43.91 18.7716 43.471C18.2671 42.5342 17.7999 41.6188 17.3326 40.7035C17.2795 40.6232 17.2263 40.5428 17.1086 40.5748C16.638 40.7025 16.1357 40.7126 15.7341 40.9795C15.6538 41.0329 15.6323 41.0703 15.5361 41.0648C15.2103 41.027 15.0383 41.3263 14.8347 41.5079C14.6741 41.6147 14.8924 41.8396 14.9241 41.9574C14.9761 42.3854 15.3653 42.6587 15.4388 43.0493C15.4965 43.3811 15.6933 43.6434 15.8528 43.8844C15.906 43.9647 16.018 44.029 16.0282 44.1842C16.1707 44.7139 16.4094 45.2492 16.7929 45.6188C17.2669 46.0902 17.4841 46.6629 17.7228 47.1981C17.8925 47.5942 18.0905 47.5089 18.2885 47.4235C18.9311 46.9964 19.611 46.5908 20.4979 46.6027ZM12.9567 47.1971C12.951 47.2934 13.0845 47.3203 13.1162 47.4381C13.141 47.9998 13.4657 48.3854 13.7531 48.7495C14.2531 49.4349 15.0371 49.8853 15.6604 50.4424C15.7883 50.5656 15.9704 50.4214 16.0394 50.5606C16.1028 50.7961 16.2634 50.6893 16.3437 50.6359C16.4614 50.604 16.6164 50.5935 16.6277 50.4009C16.6085 49.7429 16.8721 49.1976 17.173 48.6738C17.2805 48.4867 17.4151 48.1659 17.3778 48.1445C17.0746 47.7215 16.9751 47.1169 16.613 46.7098C16.3947 46.4849 16.2137 46.2814 16.1187 45.9282C16.0553 45.6927 15.9818 45.3021 15.656 45.2642C15.3302 45.2264 14.9025 45.2793 14.5711 45.3377C14.0631 45.444 13.6196 45.4381 13.123 45.3518C13.0268 45.3464 12.942 45.1483 12.8345 45.3354C12.77 45.4476 12.6682 45.5385 12.753 45.7365C12.8379 45.9345 12.8956 46.2663 12.8899 46.3625C12.7553 46.6833 12.9148 46.9243 12.9567 47.1971ZM12.3177 35.0853C11.761 35.3628 11.6751 35.5124 11.8346 35.7534C11.9941 35.9943 12.1106 36.3101 12.2113 36.567C12.4715 37.0648 12.7905 37.5467 12.933 38.0765C13.0281 38.4296 13.2407 38.7509 13.3946 39.0881C13.6548 39.5859 13.9738 40.0678 14.1537 40.619C14.1695 40.6779 14.217 40.8545 14.3188 40.7637C14.5225 40.5821 14.811 40.5985 15.0146 40.4169C15.2986 40.1819 15.6142 40.0646 15.983 40.0277C16.8598 39.8844 16.8224 39.8629 16.4242 39.0868C16.1799 38.6478 15.8394 38.2033 15.7285 37.7913C15.6075 37.2241 15.1221 36.9453 15.0011 36.3781C14.9332 35.8912 14.4965 35.4413 14.2952 34.9275C14.216 34.6332 14.0565 34.3922 13.6017 34.5789C13.2272 34.7121 12.6819 34.797 12.3177 35.0853ZM10.959 33.9067C11.1026 34.0888 11.278 34.3885 11.4533 34.6883C11.5224 34.8275 11.5812 34.8116 11.6242 34.7367C12.1118 34.3201 12.7057 34.0641 13.2838 33.7493C13.5836 33.5732 13.6051 33.5357 13.4671 33.2574C13.1594 32.583 12.8732 31.8711 12.5066 31.2127C12.1243 30.4953 11.8007 29.762 11.4184 29.0447C11.2962 28.8252 11.243 28.7449 11.0292 28.7714C10.4681 28.7974 9.96011 28.9037 9.48383 29.1278C9.28585 29.2131 8.99737 29.1966 8.86839 29.4212C8.71793 29.6831 9.05958 29.7798 9.12293 30.0153C9.13877 30.0741 9.1761 30.0956 9.1546 30.133C9.40348 30.8234 9.77001 31.4818 10.0992 32.1189C10.2214 32.3383 10.4397 32.5633 10.4499 32.7185C10.5019 33.1465 10.7735 33.4517 10.959 33.9067ZM9.91806 41.7689C10.0131 42.122 10.2948 42.5825 10.7371 42.9361C11.1953 43.3486 11.6964 43.6863 12.1976 44.024C12.2349 44.0454 12.4216 44.1526 12.3741 43.9761C12.3322 43.7032 12.5144 43.559 12.5472 43.329C12.7146 42.7782 12.9782 42.233 13.3912 41.7735C13.6808 41.4422 13.6016 41.1479 13.4262 40.8481C13.2034 40.3717 12.9217 39.9113 12.6988 39.4349C12.6513 39.2583 12.5665 39.0602 12.347 39.183C11.951 39.3536 11.5981 39.4495 11.1546 39.4435C10.5403 39.3892 9.93054 39.5863 9.35471 39.2058C9.24271 39.1414 9.12505 39.1734 9.13523 39.3285C9.31962 40.1312 9.48818 40.8749 9.91806 41.7689ZM18.7545 55.2556C18.9728 55.4806 19.1697 55.7429 19.4095 55.9305C19.948 56.2896 20.594 56.4616 21.1754 56.7459C21.5703 56.923 21.8972 56.6132 22.2389 56.7099C22.335 56.7154 22.3249 56.5602 22.2717 56.4799C22.1653 56.3193 22.0805 56.1213 21.9312 56.0355C21.7818 55.9497 21.6913 55.8479 21.7185 55.7142C21.7513 55.4843 21.6235 55.361 21.4798 55.179C21.1924 54.8148 20.8463 54.4667 20.7411 53.9583C20.6777 53.7229 20.534 53.5408 20.4119 53.3213C20.1675 52.8824 19.8643 52.4594 19.7433 51.8922C19.6958 51.7156 19.5317 51.2232 19.1731 51.4153C18.7342 51.6608 18.3122 51.6175 17.8631 51.7078C17.4943 51.7448 17.2691 51.9638 17.3426 52.3544C17.4003 52.6861 17.4795 52.9804 17.7137 53.2643C17.7669 53.3446 17.863 53.3501 17.82 53.4249C17.6639 53.7831 18.0372 53.9976 18.0576 54.3078C18.1685 54.7199 18.6221 54.881 18.7545 55.2556ZM8.02447 27.6922C8.13081 27.8528 8.17832 28.0294 8.28466 28.19C8.45435 28.5861 8.72699 28.5437 9.04263 28.4264C9.59358 28.2453 10.097 27.8875 10.7011 27.7867C10.9149 27.7602 10.7871 27.637 10.7713 27.5781C10.6389 27.2035 10.4851 26.8663 10.3312 26.5291C9.99749 25.6407 9.46579 24.8375 9.27122 23.8797C9.13435 23.2537 8.71803 23.1141 8.13993 23.4289C7.72247 23.637 7.28918 23.7862 6.90906 24.0157C6.82874 24.0691 6.4011 24.122 6.61944 24.347C7.04028 24.738 6.72803 25.4544 7.3525 25.6639C7.23371 26.0435 7.52671 26.3114 7.64323 26.6272C7.67943 26.9963 7.87062 27.355 8.02447 27.6922ZM8.68613 37.7766C8.9056 37.6539 8.98141 37.349 9.06739 37.1994C9.40113 36.4456 10.0437 36.0185 10.5426 35.4093C10.7089 35.2062 10.7519 35.1314 10.6139 34.8531C10.4227 34.4944 10.0709 34.2425 10.0189 33.8145C9.88199 33.1884 9.90348 33.151 9.34122 33.5247C9.34122 33.5247 9.34122 33.5247 9.28239 33.5407C8.48595 33.6306 7.66802 33.7579 6.87271 33.5001C6.73922 33.4731 6.57971 33.2322 6.47223 33.4193C6.34892 33.5475 6.35344 33.7989 6.37946 34.013C6.44733 34.4998 6.7935 34.848 6.94169 35.2815C7.14306 35.7953 7.34442 36.3091 7.72227 36.775C7.93495 37.0962 8.20646 37.4015 8.45647 37.7442C8.50964 37.8245 8.54698 37.846 8.68613 37.7766ZM6.24396 16.6167C6.26771 17.5261 6.21113 18.4889 6.19754 19.3769C6.20092 19.976 6.08665 20.6071 6.03121 21.2222C5.95427 21.8747 5.93616 22.5112 6.1692 23.1428C6.23255 23.3782 6.36604 23.4052 6.52669 23.2984C6.75182 23.0794 7.08329 23.021 7.37743 22.9411C7.69307 22.8238 7.96119 22.53 8.38317 22.5733C8.51666 22.6003 8.79496 22.4615 8.67845 22.1458C8.54609 21.7711 8.43523 21.3591 8.30287 20.9845C7.97933 20.2512 7.65579 19.5179 7.39107 18.7686C6.99287 17.9924 6.64783 17.2966 6.24396 16.6167ZM5.38961 31.1551C5.49595 31.3157 5.60229 31.4763 5.69279 31.5781C5.79913 31.7387 5.91679 31.7068 5.96544 31.5356C6.05821 30.942 6.35349 30.5144 6.74493 30.0924C6.99155 29.8359 7.23818 29.5795 7.55948 29.3659C7.72013 29.2591 7.84344 29.1309 7.68393 28.89C7.38074 28.467 7.25405 27.9961 7.12735 27.5252C6.93164 26.9151 6.81285 27.2947 6.57754 27.3586C6.06958 27.4649 5.58312 27.5338 5.0763 27.2924C4.92696 27.2066 4.77763 27.1209 4.64414 27.0939C4.47331 27.0456 4.32398 26.9598 4.32285 27.3075C4.25609 28.1151 4.61696 28.8699 4.80701 29.5762C4.92805 30.1434 5.18824 30.6413 5.38961 31.1551ZM9.18398 32.5884C9.20547 32.551 9.47246 32.6048 9.35029 32.3853C9.24395 32.2247 9.1591 32.0267 9.07426 31.8286C8.87855 31.2185 8.32422 30.8006 8.24617 30.1585C8.21449 30.0408 8.15567 30.0568 8.01651 30.1261C7.65223 30.4145 7.56511 30.9119 7.14766 31.12C7.08883 31.1359 7.16349 31.1788 7.142 31.2162C7.22684 31.4143 7.0447 31.5585 6.90555 31.6278C6.60575 31.804 6.70077 32.1571 6.55031 32.4191C6.50732 32.4939 6.62949 32.7134 6.70982 32.66C7.02545 32.5427 7.18496 32.7837 7.39312 32.8535C8.03909 33.0255 8.56289 32.9781 9.18398 32.5884ZM11.0596 35.8058C11.1015 36.0787 11.1275 36.2927 10.8017 36.2548C10.7055 36.2494 10.5076 36.3347 10.4589 36.5058C10.4103 36.6769 10.3401 36.8855 10.2168 37.0137C9.91134 37.2861 9.81404 37.6283 9.62058 37.9651C9.51311 38.1522 9.55496 38.425 9.78461 38.4574C10.1851 38.5382 10.5697 38.5601 10.9861 38.6997C11.3277 38.7965 11.7022 38.6632 12.002 38.4871C12.1626 38.3803 12.1683 38.2841 12.1581 38.1289C12.1276 37.6635 11.7814 37.3153 11.6705 36.9033C11.5167 36.5661 11.347 36.17 11.0596 35.8058ZM14.4727 42.7431C14.3822 42.6414 14.3132 42.5022 14.2068 42.3416C14.1378 42.2024 13.9828 42.2129 13.9183 42.3251C13.7464 42.6245 13.4624 42.8595 13.4986 43.2286C13.5348 43.5978 13.2723 43.7954 13.1592 44.0787C13.0461 44.3621 13.0992 44.4424 13.3074 44.5122C13.8572 44.6788 14.3867 44.5351 14.932 44.4502C15.2046 44.4078 15.1944 44.2526 15.0881 44.092C14.9399 43.6585 14.6955 43.2195 14.4727 42.7431ZM6.00853 24.8918C5.94518 24.6563 5.83318 24.592 5.65104 24.7362C5.54922 24.827 5.4474 24.9178 5.36142 25.0675C5.14646 25.4416 4.93151 25.8158 4.71656 26.19C4.60908 26.3771 4.72108 26.4414 4.87607 26.4309C5.34103 26.3994 5.82184 26.4268 6.28681 26.3953C6.38297 26.4008 6.50062 26.3689 6.46895 26.2511C6.4056 26.0157 6.28342 25.7962 6.2789 25.5448C6.25288 25.3308 5.97458 25.4695 6.03906 25.3572C6.18387 25.1916 6.07753 25.031 6.00853 24.8918ZM17.9898 48.8942C17.5282 49.5248 17.4354 50.1185 17.38 50.7336C17.3472 50.9636 17.4275 50.9102 17.5983 50.9585C18.0362 51.0608 18.2941 50.6118 18.6787 50.6337C18.7749 50.6391 18.9039 50.4146 18.776 50.2914C18.5045 49.9862 18.4898 49.5796 18.1595 49.2903C18.1437 49.2314 17.8925 49.2364 17.9898 48.8942Z" fill="#BBB0DB"/>
<path d="M42.4678 50.3656C42.7348 50.4195 42.9011 50.2164 43.1579 50.1151C43.8695 49.8272 44.5811 49.5393 45.2237 49.1122C45.8233 48.7599 46.4704 48.5842 47.0643 48.3283C47.2035 48.2589 47.1978 48.3552 47.251 48.4355C46.7261 48.8307 46.1321 49.0866 45.5382 49.3426C44.9228 49.636 44.3073 49.9294 43.7292 50.2443C43.4882 50.4044 43.1941 50.4843 42.8785 50.6015C42.0062 50.9962 41.1283 51.4872 40.2188 51.8605C39.3307 52.1963 38.5863 52.7142 37.757 53.0341C37.1257 53.2686 36.5262 53.6209 35.9107 53.9143C35.4718 54.1597 35.0328 54.4052 34.5407 54.5704C33.9683 54.789 33.4807 55.2056 32.9082 55.4241C32.2181 55.6747 31.6502 56.1446 30.9601 56.3951C30.4465 56.5977 29.9645 56.9181 29.4668 57.1795C29.4509 57.1207 29.4136 57.0992 29.3978 57.0404C29.5754 56.6447 29.9815 56.6292 30.2813 56.4531C30.9024 56.0634 31.5925 55.8129 32.2136 55.4232C32.9738 54.9642 33.7873 54.5855 34.5633 54.1853C35.1629 53.833 35.8372 53.5237 36.4526 53.2303C37.1269 52.9209 37.8068 52.5152 38.5184 52.2273C39.1123 51.9713 39.7651 51.6994 40.3432 51.3845C41.0231 50.9789 41.7664 50.8087 42.3717 50.3601C42.409 50.3816 42.4305 50.3442 42.4678 50.3656Z" fill="#BBB0DB"/>
<path d="M20.341 27.6015C20.2086 27.2269 19.953 26.9805 19.7776 26.6807C19.5332 26.2417 19.3477 25.7868 19.1622 25.3318C18.9608 24.818 18.7006 24.3202 18.4993 23.8064C18.2346 23.0571 17.911 22.3238 17.5875 21.5905C17.0569 20.4397 16.5852 19.2729 15.9155 18.1915C15.7401 17.8917 15.6236 17.5759 15.4109 17.2547C15.2356 16.9549 15.5942 16.7628 15.7922 16.6775C16.5569 16.4698 17.1837 15.9839 17.9326 15.7174C18.4836 15.5363 19.0718 15.3766 19.495 15.0722C19.8966 14.8053 20.3672 14.6775 20.7846 14.4694C21.1648 14.2399 21.6354 14.1122 22.0528 13.9041C23.0857 13.4026 24.0655 12.8208 25.1515 12.3997C25.8416 12.1492 26.5 11.7809 27.1743 11.4716C28.068 11.0395 28.9618 10.6073 29.8555 10.1752C30.5139 9.807 31.204 9.55649 31.9156 9.26857C32.3116 9.09792 32.6544 8.84695 33.0503 8.6763C33.5266 8.45225 34.0244 8.1908 34.538 7.9882C34.736 7.90287 34.9238 7.6624 35.1105 7.76964C35.4464 7.96266 35.7451 8.13423 35.9521 8.55176C36.3662 9.38681 36.6999 10.2752 37.1139 11.1103C37.4748 11.865 37.8142 12.6572 38.1536 13.4493C38.4398 14.1612 38.7633 14.8945 39.1299 15.5529C39.5812 16.4094 40.1288 17.2714 40.3019 18.2666C40.4172 18.9301 40.2883 19.1546 39.7102 19.4694C38.8752 19.8856 37.9713 20.1625 37.1308 20.675C36.6488 20.9953 36.0549 21.2513 35.5628 21.4164C34.8942 21.6295 34.2414 21.9015 33.626 22.1949C33.0909 22.4349 32.5931 22.6964 32.058 22.9364C31.464 23.1924 30.8486 23.4858 30.2173 23.7203C29.7037 23.9229 29.1686 24.1629 28.724 24.5047C28.4615 24.7022 28.1459 24.8195 27.8517 24.8994C27.044 25.1818 26.3957 25.7052 25.6412 26.0679C24.8063 26.4841 23.9872 26.9591 23.2269 27.4181C22.788 27.6636 22.3275 27.9465 21.8886 28.192C21.2143 28.5014 20.8353 28.3832 20.5276 27.7088C20.3353 27.6978 20.341 27.6015 20.341 27.6015ZM35.5505 8.81869C35.184 8.16024 34.9012 8.04752 34.4351 8.42671C33.969 8.8059 33.4497 9.10477 32.9361 9.30737C32.1441 9.64868 31.3307 10.0274 30.5173 10.4061C29.6451 10.8008 28.7943 11.1581 27.9379 11.6117C27.5793 11.8038 27.1618 12.0118 26.7659 12.1825C26.3914 12.3157 25.9955 12.4864 25.6368 12.6785C25.1549 12.9988 24.6198 13.2388 24.0847 13.4788C23.3516 13.8042 22.6773 14.1135 21.9442 14.4389C20.9917 14.887 20.0391 15.335 19.0492 15.7617C18.4179 15.9962 17.7493 16.2093 17.1871 16.583C16.8658 16.7966 16.4438 16.7532 16.1225 16.9668C15.903 17.0895 15.8759 17.2232 15.9822 17.3838C16.4223 18.4329 17.0388 19.434 17.5377 20.4671C17.9834 21.4199 18.3703 22.3886 18.7945 23.3788C19.2403 24.3316 19.6645 25.3218 20.1102 26.2746C20.2957 26.7295 20.6204 27.1151 20.8059 27.57C20.9541 28.0035 21.1566 28.1696 21.5368 27.9401C21.7562 27.8174 21.9757 27.6946 22.2167 27.5345C22.8219 27.0859 23.4804 26.7177 24.1388 26.3495C24.856 25.9653 25.5948 25.5436 26.312 25.1594C27.1684 24.7059 28.0463 24.2149 28.9186 23.8202C29.4537 23.5802 30.0261 23.3616 30.5024 23.1376C31.7118 22.5882 32.9053 21.98 34.1305 21.4894C34.7833 21.2175 35.4202 20.8867 36.073 20.6147C37.2235 20.0813 38.3526 19.5853 39.5031 19.0519C39.7011 18.9666 39.8991 18.8812 39.7984 18.6243C39.6027 18.0143 39.407 17.4042 39.131 16.8475C38.8708 16.3496 38.5518 15.8678 38.3719 15.3166C38.0065 14.3104 37.4431 13.3896 37.0562 12.4208C36.8073 11.7304 36.4782 11.0934 36.1704 10.419C35.9532 9.8463 35.6772 9.2896 35.5505 8.81869Z" fill="#BBB0DB"/>
<path d="M50.7582 41.2934C50.0409 41.6776 49.3881 41.9496 48.7569 42.1841C47.9706 42.4291 47.2318 42.8507 46.4456 43.0958C45.8946 43.2769 45.338 43.5544 44.9093 43.955C44.6626 44.2114 44.2248 44.1092 43.9477 43.9002C43.3028 43.3805 43.3537 42.5139 42.8481 41.9248C42.7576 41.8231 42.6671 41.7213 42.6354 41.6036C42.5879 41.427 42.3537 41.1432 42.8402 41.0743C43.209 41.0373 43.5144 40.7649 43.7984 40.5299C43.959 40.4231 44.1038 40.2575 44.3493 40.3488C44.398 40.1777 44.5903 40.1886 44.7294 40.1193C45.2487 39.8204 45.7997 39.6392 46.3348 39.3992C47.009 39.0899 47.7738 38.8822 48.3632 38.3748C48.5669 38.1932 48.9198 38.0974 49.214 38.0176C49.4119 37.9322 49.5884 37.8843 49.7706 37.7401C50.0919 37.5266 50.2197 37.6498 50.3736 37.987C50.4584 38.185 50.6021 38.3671 50.6869 38.5651C50.9844 39.0844 51.3193 39.6252 51.4403 40.1923C51.5501 40.9521 51.4324 40.984 50.7582 41.2934ZM43.8131 40.9365C43.0212 41.2778 43.037 41.3367 43.4035 41.9951C43.5257 42.2146 43.6422 42.5304 43.7214 42.8247C43.9273 43.5899 44.3221 43.767 45.002 43.3613C45.5586 43.0839 46.0779 42.785 46.6504 42.5665C47.164 42.3639 47.7523 42.2042 48.1754 41.8998C48.7161 41.5635 49.3576 41.4841 49.861 41.1264C50.0432 40.9822 50.3803 40.8275 50.6744 40.7477C50.8509 40.6998 51.0919 40.5396 51.007 40.3416C50.869 40.0632 50.8487 39.7529 50.6892 39.512C50.4392 39.1693 50.248 38.8106 50.1586 38.3612C50.1111 38.1846 49.9833 38.0614 49.8068 38.1093C49.4753 38.1677 49.1065 38.2046 48.9029 38.3862C48.3134 38.8937 47.5917 39.0264 46.9547 39.3572C46.7567 39.4426 46.5746 39.5868 46.3393 39.6506C46.0825 39.7519 45.7884 39.8318 45.5315 39.9331C44.8731 40.3013 44.4014 40.7768 43.8131 40.9365Z" fill="#BBB0DB"/>
<path d="M29.3918 4.93224C29.0433 5.27949 28.5297 5.48209 28.1281 5.74902C27.4855 6.17612 26.7954 6.42662 26.0996 6.77341C24.6493 7.48295 23.2046 8.09621 21.7701 8.86462C21.0528 9.24882 20.3729 9.65447 19.693 10.0601C18.7133 10.6419 17.6589 11.1808 16.6792 11.7626C15.5015 12.4297 14.3396 13.1557 13.1993 13.8442C12.8995 14.0203 12.5895 14.0413 12.327 14.2389C12.1879 14.3083 11.9797 14.2384 11.8734 14.0778C11.8044 13.9386 12.0182 13.9122 12.0985 13.8588C12.8961 13.4212 13.7525 12.9676 14.5874 12.5515C14.8657 12.4128 15.0693 12.2312 15.3476 12.0925C16.884 11.2333 18.4576 10.3955 19.9566 9.51484C20.856 8.98644 21.7396 8.39918 22.6921 7.9511C23.5644 7.55641 24.3518 6.96367 25.3145 6.67073C25.6675 6.57491 25.9944 6.26508 26.3904 6.09443C27.0861 5.74764 27.8192 5.4223 28.515 5.07552C28.8736 4.88342 29.2107 4.72873 29.5694 4.53663C29.7085 4.46727 29.9065 4.38194 29.9755 4.52112C30.0445 4.66029 29.8465 4.74562 29.7447 4.83642C29.6271 4.86836 29.5626 4.98062 29.3918 4.93224Z" fill="#BBB0DB"/>
<path d="M26.2622 30.605C26.9093 30.4293 27.3969 30.0127 27.9908 29.7568C28.5259 29.5167 29.0294 29.159 29.5271 28.8976C30.2229 28.5508 30.9028 28.1451 31.5239 27.7554C32.0647 27.4191 32.7276 27.3023 33.2526 26.9072C34.0615 26.277 35.0084 25.9252 35.9021 25.4931C36.3784 25.2691 36.892 25.0665 37.3898 24.805C37.5878 24.7197 37.8547 24.7735 38.0584 24.5919C38.1387 24.5385 38.3095 24.5869 38.3627 24.6672C38.4159 24.7475 38.2767 24.8169 38.1964 24.8703C37.5006 25.2171 36.7834 25.6013 36.0876 25.9481C35.1939 26.3802 34.3002 26.8123 33.4223 27.3033C32.6462 27.7034 31.9233 28.1839 31.1845 28.6055C30.8044 28.8351 30.4084 29.0057 30.0125 29.1764C29.0972 29.6459 28.1662 30.0566 27.2509 30.5261C26.9138 30.6808 26.6038 30.7018 26.2622 30.605Z" fill="#BBB0DB"/>
<path d="M48.0206 28.7723C47.7694 28.7773 47.7378 28.6596 47.6314 28.4989C47.1914 27.4499 46.6925 26.4168 46.1936 25.3837C45.5782 24.0349 44.9039 22.702 44.2512 21.3317C44.0125 20.7964 43.7953 20.2238 43.5351 19.7259C43.1844 19.1263 43.069 18.4629 42.6165 17.9541C42.526 17.8523 42.5905 17.7401 42.5588 17.6223C42.5056 17.542 42.3031 17.3759 42.4423 17.3066C42.6029 17.1998 42.7998 17.4622 42.8156 17.521C43.2183 18.5486 43.7602 19.5069 44.2433 20.4811C44.7263 21.4553 45.0861 22.5578 45.628 23.516C46.1167 24.394 46.4289 25.3198 46.8803 26.1763C47.2943 27.0114 47.628 27.8998 48.0206 28.7723Z" fill="#BBB0DB"/>
<path d="M29.5486 32.1446C32.0635 31.0514 34.5309 29.7815 37.1148 28.8274C34.7481 30.3541 32.2705 31.4689 29.5486 32.1446Z" fill="#BBB0DB"/>
<path d="M37.8102 49.8299C34.8077 51.3398 31.7419 52.6142 28.6602 53.8298C31.6412 52.3573 34.6754 50.9651 37.8102 49.8299Z" fill="#BBB0DB"/>
<path d="M42.5561 47.8783C42.116 48.4715 41.5651 48.6526 40.9824 48.7161C40.8274 48.7265 40.7041 48.8548 40.6023 48.9456C40.522 48.999 40.4258 48.9935 40.3727 48.9132C40.3195 48.8329 40.3998 48.7795 40.4213 48.7421C40.4428 48.7046 40.4801 48.7261 40.5016 48.6887C41.1702 48.4756 41.7223 47.9467 42.5561 47.8783Z" fill="#BBB0DB"/>
<path d="M31.7358 3.79059C32.0413 3.51818 32.4474 3.50267 32.7314 3.26767C32.8332 3.17687 32.9882 3.16637 33.0572 3.30555C33.1421 3.50359 32.9497 3.49263 32.8694 3.54602C32.6126 3.64732 32.3558 3.74862 32.099 3.84991C32.0187 3.9033 31.8422 3.95121 31.7358 3.79059Z" fill="#BBB0DB"/>
<path d="M28.2419 37.963C28.433 38.3217 28.2667 38.5247 28.0631 38.7063C27.9398 38.8346 27.8549 38.6365 27.8391 38.5777C27.7011 38.2993 27.8515 38.0374 28.0925 37.8772C28.1355 37.8024 28.269 37.8293 28.2419 37.963Z" fill="#BBB0DB"/>
<path d="M40.2596 45.912C40.1159 45.73 39.9881 45.6068 39.8817 45.4461C39.8286 45.3658 39.7007 45.2426 39.7867 45.093C39.8512 44.9807 39.9847 45.0076 40.1182 45.0346C40.2302 45.0989 40.401 45.1473 40.3897 45.3398C40.3784 45.5324 40.3885 45.6875 40.2596 45.912Z" fill="#BBB0DB"/>
<path d="M39.4758 33.9659C39.6522 33.918 39.8559 33.7364 39.9034 33.913C39.9724 34.0521 39.8219 34.314 39.6613 34.4208C39.5221 34.4902 39.3457 34.5381 39.2608 34.3401C39.1975 34.1046 39.3581 33.9978 39.4758 33.9659Z" fill="#BBB0DB"/>
<path d="M49.0874 30.9776C49.3589 31.2829 49.5557 31.5453 49.4958 31.909C49.3577 31.6306 48.9629 31.4536 49.0874 30.9776Z" fill="#BBB0DB"/>
<path d="M44.1776 25.8678C44.3269 25.9536 44.5306 25.772 44.5724 26.0449C44.6199 26.2215 44.4593 26.3283 44.3575 26.4191C44.2771 26.4724 44.1708 26.3118 44.155 26.253C44.0859 26.1138 44.1504 26.0015 44.1776 25.8678Z" fill="#BBB0DB"/>
<path d="M26.779 42.4973C26.8967 42.4654 27.0087 42.5297 27.003 42.626C27.0132 42.7812 27.0177 43.0326 26.8571 43.1394C26.7179 43.2087 26.7292 43.0161 26.676 42.9358C26.5539 42.7164 26.7145 42.6096 26.779 42.4973Z" fill="#BBB0DB"/>
<path d="M48.6764 48.8065C48.6504 48.5925 48.8642 48.566 48.9819 48.5341C49.7467 48.3265 50.3949 47.8031 51.2287 47.7347C51.5454 47.2697 52.1326 47.4577 52.5184 47.1319C52.7005 46.9877 52.9302 47.0201 53.144 46.9936C53.1168 47.1273 52.9992 47.1593 52.9189 47.2127C52.1858 47.538 51.4153 47.8419 50.6449 48.1458C50.1313 48.3484 49.6177 48.551 49.0826 48.791C48.9061 48.8389 48.7669 48.9083 48.6764 48.8065Z" fill="#BBB0DB"/>
<path d="M29.4351 57.0618C29.4509 57.1207 29.4883 57.1421 29.5041 57.201C29.0651 57.4465 28.5357 57.5902 28.1284 57.9534C28.0266 58.0442 27.8558 57.9958 27.7008 58.0063C28.2416 57.67 28.7235 57.3497 29.2643 57.0134C29.3231 56.9975 29.3978 57.0404 29.4351 57.0618Z" fill="#BBB0DB"/>
<path d="M39.6701 52.9885C39.0761 53.2444 38.4448 53.479 37.8294 53.7724C37.8136 53.7135 37.8136 53.7135 37.7977 53.6546C38.3917 53.3987 39.0071 53.1053 39.6384 52.8707C39.6169 52.9081 39.6542 52.9296 39.6701 52.9885Z" fill="#BBB0DB"/>
<path d="M48.6764 48.8065C48.6549 48.8439 48.6923 48.8654 48.6764 48.8065C48.216 49.0894 47.6809 49.3294 47.1514 49.4731C47.553 49.2062 48.0452 49.041 48.4468 48.7741C48.5271 48.7207 48.6176 48.8225 48.6764 48.8065Z" fill="#BBB0DB"/>
<path d="M45.6264 50.1398C45.9534 49.83 46.3493 49.6593 46.7985 49.569C46.4873 49.9377 45.9692 49.8888 45.6264 50.1398Z" fill="#BBB0DB"/>
<path d="M21.1783 18.2787C21.917 17.8571 22.5755 17.4889 23.2712 17.1421C23.6887 16.934 24.1276 16.6885 24.5824 16.5019C25.0372 16.3153 25.4603 16.0109 25.9366 15.7869C26.707 15.483 27.3926 14.981 28.163 14.6771C29.447 14.1707 30.6994 13.5464 31.9993 13.0988C32.4914 12.9336 32.9089 12.7256 33.3636 12.5389C33.5401 12.491 33.6148 12.5339 33.7211 12.6946C33.8806 12.9355 33.6352 12.8442 33.5763 12.8602C33.1589 13.0683 32.7573 13.3352 32.2708 13.4041C32.057 13.4306 31.7628 13.5104 31.5592 13.692C31.2537 13.9644 30.7571 13.8782 30.4143 14.1291C29.8521 14.5029 29.2049 14.6785 28.5895 14.9719C28.1506 15.2174 27.6901 15.5003 27.1663 15.5478C26.8348 15.6062 26.6255 15.8841 26.3099 16.0013C25.32 16.428 24.346 16.9135 23.3719 17.399C22.8153 17.6764 22.2214 17.9324 21.6862 18.1724C21.4294 18.2737 21.1568 18.3161 20.9532 18.4977C20.8728 18.5511 20.7178 18.5616 20.702 18.5027C20.633 18.3636 20.7506 18.3316 20.8683 18.2997C20.9803 18.364 21.1195 18.2947 21.1783 18.2787Z" fill="#BBB0DB"/>
<path d="M22.71 20.4526C25.8902 18.5471 29.128 16.9733 32.5785 15.7208C32.342 16.1324 31.9517 16.2067 31.6519 16.3829C30.9562 16.7297 30.2977 17.0979 29.6235 17.4073C28.9922 17.6418 28.3926 17.9941 27.7987 18.25C27.3224 18.4741 26.7658 18.7515 26.2838 19.0718C25.8822 19.3388 25.3471 19.5788 24.7962 19.7599C24.3844 19.8717 24.0201 20.1601 23.6026 20.3682C23.33 20.4106 23.1049 20.6296 22.71 20.4526Z" fill="#BBB0DB"/>
<path d="M21.9667 25.5495C22.03 25.785 22.1896 26.0259 21.8898 26.202C21.6703 26.3248 21.4678 26.1587 21.4203 25.9821C21.3354 25.7841 21.5017 25.581 21.6624 25.4742C21.78 25.4423 21.8977 25.4104 21.9667 25.5495Z" fill="#BBB0DB"/>
<path d="M20.6612 22.8089C20.5707 22.7072 20.3784 22.6962 20.3309 22.5196C20.2675 22.2842 20.263 22.0327 20.504 21.8726C20.6058 21.7818 20.7495 21.9638 20.7438 22.0601C20.711 22.2901 21.004 22.558 20.6612 22.8089Z" fill="#BBB0DB"/>
<path d="M35.6567 17.1906C35.4961 17.2974 35.4214 17.2545 35.3524 17.1153C35.2302 16.8958 35.3852 16.8853 35.5244 16.8159C35.7065 16.6718 35.754 16.8483 35.8445 16.9501C35.9882 17.1322 35.6251 17.0729 35.6567 17.1906Z" fill="#BBB0DB"/>
</svg>
