<svg width="68" height="35" viewBox="0 0 68 35" fill="none" xmlns="http://www.w3.org/2000/svg">
<path d="M47.0757 30.6402C46.8207 31.0244 46.6932 31.4085 46.1195 31.4726C45.6732 31.5366 45.227 31.8568 44.9082 32.2409C44.5895 32.6251 44.0795 32.6251 43.6332 32.8812C42.8045 33.4575 41.7845 33.9697 40.892 34.418C40.7007 34.546 40.382 34.418 40.127 34.482C39.8082 34.546 40.4457 34.9302 39.9995 34.8662C39.7445 34.8662 39.6807 34.6741 39.617 34.482C39.5532 34.482 39.4895 34.482 39.4257 34.546C38.4057 35.0583 37.322 34.8021 36.302 34.9302C35.537 35.0583 34.7082 34.9942 33.9433 34.8662C33.4333 34.8021 32.987 34.6741 32.4133 34.6741C32.0308 34.6741 31.5208 34.2259 31.0108 34.0338C30.947 34.0338 30.8833 33.8417 30.7558 33.9057C29.2895 34.482 28.397 33.3294 27.3133 32.6891C26.867 32.369 25.9745 32.0488 25.4008 32.0488C25.337 32.0488 25.2733 32.0488 25.2733 32.0488C24.7633 31.0244 23.6158 30.6402 22.8508 29.8078C22.1495 29.1035 21.8308 28.079 20.9383 27.6308C20.1733 27.2466 20.237 26.3502 19.5358 25.966C19.472 25.902 19.1533 25.3257 19.0895 24.8775C19.0258 24.1732 18.6433 23.5329 18.2608 22.9566C17.942 22.3803 18.0058 21.804 17.8145 21.2278C17.5595 20.3954 18.2608 19.4349 17.432 18.6666C17.1133 18.3464 16.667 18.4105 16.3483 17.9622C16.2845 17.8342 15.9658 17.8342 15.9658 17.5781C15.9658 17.45 15.7108 17.386 15.647 17.45C15.2008 18.1543 15.137 17.386 14.882 17.2579C14.2445 16.9378 13.7983 16.2975 13.0333 16.2334C12.9058 16.2334 12.7783 16.2334 12.7783 16.1694C12.7783 15.337 11.6945 15.5931 11.5033 14.9528C11.4395 14.8248 11.312 14.8248 11.1845 14.7607C10.3558 14.6327 9.78204 13.9284 9.0808 13.5442C8.1883 13.096 7.4233 12.4557 6.59455 12.0075C5.6383 11.4952 4.80955 10.6628 3.78956 10.1506C3.59831 10.0866 3.59831 9.76641 3.40706 9.63835C3.27956 9.51029 3.21581 9.3182 3.08831 9.63835C3.02456 9.76641 2.89706 9.70238 2.83331 9.63835C2.38706 8.80596 2.38706 8.80596 1.49456 8.42178C1.11206 8.22969 1.11206 7.71745 0.665811 7.65342C0.092062 7.52536 0.155812 6.88506 0.0920619 6.50088C0.028312 5.73252 -0.226688 4.96416 0.538311 4.38789C0.665811 4.32386 0.793311 4.13177 0.92081 4.1958C1.23956 4.1958 1.55831 4.45192 1.62206 3.87565C2.06831 4.1958 2.45081 3.49147 2.96081 3.74759C3.15206 3.87565 3.53456 3.93968 3.59831 3.49147C3.66206 3.23535 3.85331 3.29938 3.9808 3.36341C4.7458 3.61953 5.44705 3.36341 6.21205 3.23535C6.84955 3.10729 7.4233 3.5555 8.0608 3.68356C8.63455 3.74759 9.27205 4.06774 9.84579 3.81162C10.1008 3.68356 10.2283 3.93968 10.4833 3.93968C11.567 3.93968 12.587 4.8361 13.7983 4.1958C13.862 4.1958 14.4358 4.64401 14.8183 4.70804C15.9658 4.96416 16.9858 5.41237 18.197 5.4764C19.0895 5.54043 20.0458 5.79655 20.8108 6.37282C21.1933 6.69297 21.7033 7.01312 21.9583 6.18073C22.022 5.92461 22.277 5.98864 22.4045 5.86058C22.6595 5.66849 22.9783 5.60446 23.1695 5.28431C23.7433 4.38789 24.6358 3.87565 25.592 3.36341C26.102 3.17132 26.4208 2.85117 26.8033 2.59505C27.2495 2.2749 27.6958 1.50654 28.4608 1.82669C28.5883 1.89072 28.907 1.76266 28.9708 1.69863C29.162 0.866238 29.927 1.18639 30.437 0.994299C31.0108 0.674149 31.6483 0.674149 32.2858 0.546089C32.6683 0.482059 33.0508 0.418029 33.4333 0.418029C33.9433 0.482059 34.4533 0.289969 34.9632 0.225939C35.537 0.161909 36.1745 -0.158241 36.557 0.0978786C37.5132 0.674149 38.6607 0.353999 39.5532 0.994299C39.8082 1.12236 40.0632 1.18639 40.3182 1.18639C41.0832 1.25042 41.7845 1.69863 42.422 2.14684C43.2507 2.65908 44.0795 3.10729 44.9082 3.5555C45.6732 3.93968 46.247 4.51595 46.8207 5.09222C47.4582 5.73252 48.032 6.37282 48.6057 7.01312C49.3707 7.78148 50.0082 8.6779 50.582 9.51029C51.2195 10.4067 51.5382 11.4952 51.857 12.5197C52.1757 13.7363 52.7495 14.9528 52.6857 16.2975C52.6857 16.8097 52.877 17.2579 52.9407 17.7702C53.0045 18.3464 52.877 18.9227 52.8132 19.563C52.6857 20.2673 53.0045 20.7796 53.7695 20.9717C54.152 21.0997 54.407 21.2918 54.7257 21.4839C56.0007 22.3163 57.3395 22.9566 58.5507 23.853C59.762 24.7494 60.9732 25.5178 62.2482 26.2861C63.5232 27.1185 64.7344 28.015 65.8182 29.0394C66.7107 29.8718 67.7944 30.5762 67.9857 31.9848C68.0494 32.7532 67.9219 33.3294 67.1569 33.4575C66.3282 33.5856 65.4994 33.7777 64.6069 33.7136C62.8857 33.7136 61.3557 32.9453 59.6982 32.8172C59.3157 32.8172 58.8057 32.433 58.3595 32.8812C58.1682 33.0733 57.7857 32.5611 57.467 32.433C57.1482 32.305 56.957 32.1129 56.5745 32.2409C55.8095 32.4971 55.172 32.305 54.662 31.7927C54.5345 31.6647 54.4707 31.8568 54.407 31.8568C54.2795 31.9208 53.9607 31.9208 53.897 31.8568C53.5782 31.0244 52.5582 31.5366 52.112 30.9603C51.9845 30.7682 51.4107 30.7682 51.2195 31.0884C51.1557 31.2165 51.0282 31.2805 51.0282 31.2165C50.582 30.5121 49.7532 30.7682 49.1795 30.256C48.6695 29.8078 47.3945 30.0639 47.0757 30.6402ZM24.572 10.9189C23.7433 12.0715 24.1895 13.096 24.2533 14.1204C24.2533 14.6967 24.6995 15.1449 25.0183 15.5931C25.4645 16.2975 25.9108 16.8097 26.5483 17.386C27.887 18.4105 29.417 18.4745 30.7558 18.3464C31.9033 18.2824 33.1783 18.1543 34.3257 17.8342C36.1745 17.3219 38.087 16.8737 39.9995 16.4896C40.382 16.4255 40.8282 16.5536 41.0195 16.4255C41.8482 15.7212 42.8682 15.7852 43.7607 15.7212C44.7807 15.6572 45.8007 15.7212 46.8845 15.8493C48.287 16.0413 49.6257 16.3615 50.7732 17.1299C51.092 17.3219 51.1557 17.0658 51.1557 16.8737C51.2195 15.5931 50.7732 14.3766 50.4545 13.16C50.3907 12.9679 50.1995 12.7758 50.0082 12.7118C49.052 12.3916 48.032 12.1355 47.012 11.8794C45.8007 11.5592 44.5895 12.0075 43.442 12.4557C42.5495 12.8398 41.5932 13.16 40.637 13.4161C38.9795 13.8643 37.322 13.9924 35.6007 13.9284C34.517 13.8643 33.242 13.8643 32.6045 12.9039C31.7758 11.6873 31.6483 10.1506 32.2858 8.74193C32.732 7.71745 33.497 6.94909 34.3895 6.30879C35.3457 5.66849 36.302 5.09222 37.2582 4.51595C37.832 4.13177 38.4695 3.87565 39.107 3.5555C39.4257 3.36341 39.617 3.10729 39.6807 2.78714C39.7445 2.59505 39.617 2.53102 39.4257 2.53102C38.7245 2.53102 38.1507 1.89072 37.4495 1.95475C36.812 2.01878 36.2382 2.08281 35.6007 2.01878C34.7082 1.95475 33.752 2.08281 32.8595 2.01878C32.5408 2.01878 32.3495 2.14684 32.222 2.46699C31.9033 3.5555 31.457 4.57998 30.437 5.22028C29.7995 5.60446 29.2895 6.1167 28.7158 6.56491C28.3333 6.88506 27.5683 6.757 27.5683 7.46133C27.122 7.3973 27.1858 8.0376 26.9308 8.10163C26.4845 8.16566 26.2295 8.42178 26.0383 8.80596C25.5283 9.51029 24.572 10.0866 24.572 10.9189ZM31.6483 2.65908C31.1383 2.72311 30.8195 2.85117 30.5645 2.9152C29.9908 2.97923 29.2258 3.17132 28.8433 3.49147C28.142 4.06774 27.1858 4.32386 26.4845 4.96416C25.7833 5.60446 25.0183 6.18073 24.2533 6.69297C23.4245 7.20521 23.1058 8.22969 22.2133 8.74193C22.0858 8.80596 22.022 8.99805 22.022 9.12611C22.0858 9.51029 21.8945 9.70238 21.6395 9.9585C21.257 10.3427 20.9383 10.8549 20.747 11.3672C20.6195 11.6873 20.3008 12.0075 20.492 12.5837C20.6195 12.9039 20.3645 13.3521 20.0458 13.6722C19.2808 14.5687 19.6633 15.6572 19.5358 16.6176C19.472 17.0658 19.727 17.45 20.492 17.386C21.3208 17.2579 21.8945 18.1543 22.5958 18.5385C23.7433 19.1148 24.827 19.7551 26.0383 20.1393C26.9308 20.4594 27.887 20.7796 28.7795 21.0997C28.9708 21.1637 29.2258 21.2278 29.2258 21.2918C29.3533 21.8681 29.8633 21.804 30.2458 21.9961C30.5008 22.1242 30.7558 22.1242 31.0108 22.1882C31.3933 22.3163 31.712 22.4443 32.0945 22.5084C32.6045 22.6364 32.987 23.3408 33.6883 22.9566C33.8158 22.8926 34.007 22.7645 34.007 23.0206C34.007 23.5969 34.262 23.4048 34.6445 23.3408C34.8995 23.2767 35.282 23.2127 35.537 23.4688C35.792 23.7249 36.1107 23.5969 36.4932 23.5329C37.1945 23.4048 37.6407 22.7645 38.342 22.7005C38.9795 22.6364 39.5532 22.3803 40.127 22.2523C41.147 21.9321 42.2307 21.9321 43.2507 21.612C43.5057 21.5479 43.8245 21.3558 44.1432 21.4839C44.8445 21.74 45.5457 21.804 46.247 21.804C47.4582 21.8681 48.542 22.2523 49.6257 22.8285C49.817 22.8926 50.2632 22.8926 50.2632 22.7645C50.7095 21.8681 51.2832 21.0357 51.2832 19.9472C51.347 18.0903 51.347 18.0903 49.6257 17.3219C47.267 16.2975 44.7807 16.2334 42.3582 16.6176C40.4457 16.9378 38.597 17.514 36.6845 17.8982C36.2382 17.9622 35.8557 18.2824 35.4095 18.2824C34.5807 18.2184 33.8158 18.4745 33.0508 18.6666C31.7758 18.9867 30.5008 18.9227 29.2258 18.9227C28.397 18.9227 27.4408 18.7306 26.5483 18.2184C24.8908 17.1939 23.807 15.7852 23.2333 13.9924C22.6595 12.1355 23.552 10.4707 24.4445 8.93402C24.9545 8.0376 25.7833 7.46133 26.612 6.82103C27.377 6.24476 28.2695 5.79655 29.0345 5.15625C29.927 4.32386 30.7558 3.68356 31.6483 2.65908ZM21.002 7.90954C20.4283 7.20521 19.5358 7.58939 18.962 7.20521C18.8983 7.14118 18.707 7.26924 18.5795 7.26924C18.5158 7.26924 18.5158 7.52536 18.3883 7.3973C18.0695 6.88506 17.4958 6.88506 17.0495 6.82103C15.7745 6.56491 14.5633 6.05267 13.2883 6.18073C13.1608 6.18073 13.097 6.24476 13.0333 6.1167C12.5233 5.66849 11.822 5.60446 11.2483 5.54043C9.90954 5.34834 8.5708 5.28431 7.23205 5.09222C6.84955 5.02819 6.6583 5.41237 6.2758 5.28431C4.80955 4.70804 3.53456 5.34834 2.19581 5.66849C1.87706 5.73252 1.81331 6.1167 1.94081 6.30879C2.19581 6.69297 2.51456 7.14118 2.83331 7.20521C3.72581 7.3973 4.1083 8.29372 5.06455 8.48581C5.7658 8.61387 6.1483 9.76641 7.1683 9.63835C7.23205 9.63835 7.2958 9.76641 7.2958 9.83044C7.2958 10.5348 7.99705 10.8549 8.4433 10.983C9.14455 11.2391 9.65454 11.8154 10.4195 11.9434C11.057 12.0715 11.4395 12.5837 11.9495 12.9679C12.842 13.5442 13.9895 13.8003 14.8183 14.5687C15.137 14.8248 15.8383 14.5046 15.8383 15.273C16.412 14.9528 16.5395 15.5291 16.8583 15.7852C17.3683 16.1694 17.7508 16.0413 17.942 15.401C18.1333 14.8888 17.942 14.2485 18.3883 13.8003C18.5158 13.6722 18.5158 13.4161 18.452 13.2881C18.0058 11.8154 19.1533 10.7909 19.5995 9.63835C19.727 9.3182 20.1095 8.86999 20.3008 8.48581C20.4283 8.10163 20.6195 7.90954 21.002 7.90954ZM50.1357 11.7513C49.7532 11.111 49.307 10.6628 49.1157 10.0866C48.7332 8.86999 47.8407 8.10163 47.0757 7.26924C46.4382 6.56491 45.482 6.1167 44.7807 5.41237C44.3982 5.09222 44.0157 5.02819 43.5695 5.15625C42.8045 5.34834 42.1032 5.73252 41.5295 6.18073C40.9557 6.56491 40.3182 7.01312 40.127 7.78148C40.0632 8.10163 40.127 8.54984 40.3182 8.54984C40.7007 8.61387 40.8282 9.12611 41.2745 8.93402C41.5932 8.86999 41.912 8.74193 42.2945 8.80596C43.2507 8.86999 44.207 8.93402 45.0995 8.54984C45.5457 8.35775 45.8007 8.48581 46.1195 8.48581C46.247 8.48581 46.3107 8.54984 46.3107 8.6779C46.3107 8.86999 46.1195 8.80596 46.0557 8.86999C45.227 9.51029 44.207 9.19014 43.3782 9.51029C42.8045 9.76641 42.167 9.70238 41.4657 9.70238C40.8282 9.63835 40.1907 9.70238 39.6807 9.25417C39.0432 8.74193 39.1707 8.0376 39.362 7.46133C39.6807 6.757 39.9357 5.92461 41.0832 5.73252C41.5932 5.66849 42.1032 4.96416 42.7407 4.70804C42.8045 4.70804 43.1232 4.70804 43.0595 4.45192C42.9957 4.1958 42.8045 4.06774 42.6132 4.13177C41.9757 4.25983 41.7207 3.36341 41.0832 3.68356L40.9557 3.5555C40.5732 3.10729 40.3182 3.10729 39.9995 3.61953C39.872 3.87565 39.6807 4.13177 39.4257 4.25983C38.342 4.8361 37.322 5.4764 36.2382 6.05267C35.2182 6.56491 34.4533 7.3973 33.5607 8.10163C32.8595 8.6779 32.7958 9.57432 32.6683 10.3427C32.5408 11.047 32.6045 11.8154 33.1783 12.4557C33.6245 12.9679 34.3257 13.2881 34.8357 13.2881C36.2382 13.2881 37.6407 13.5442 39.0432 13.0319C39.2982 12.9039 39.2982 13.3521 39.617 13.16C40.5095 12.5837 41.657 12.5197 42.6132 12.1355C43.2507 11.8794 43.8882 11.7513 44.5257 11.5592C45.482 11.3031 46.4382 11.047 47.4582 11.2391C48.4145 11.3031 49.2432 11.4952 50.1357 11.7513ZM49.4345 27.7588C49.307 27.9509 49.1795 28.079 49.307 28.2711C49.3707 28.3991 49.562 28.3991 49.7532 28.3351C50.0082 28.2711 50.2632 28.2711 50.3907 28.3991C51.092 29.1035 52.112 28.3991 52.8132 29.1035C53.3232 28.6553 53.5145 29.1675 53.7695 29.4876C53.897 29.6797 54.0245 29.6157 54.2157 29.5517C54.407 29.4876 54.7257 29.4236 54.8532 29.4876C55.5545 29.9999 56.702 29.2956 57.2757 30.32C57.2757 30.32 57.4032 30.256 57.467 30.32C57.8495 30.5121 58.2957 30.192 58.6782 30.5762C58.8057 30.7042 58.997 31.0244 59.252 30.8963C59.5707 30.7042 59.9532 30.7682 60.0807 30.8323C60.7182 31.0884 61.292 31.2165 61.9932 31.0884C62.1844 31.0244 62.8219 30.7682 62.9494 31.4085C63.3957 31.2805 63.6507 31.8568 64.0332 31.7287C64.6069 31.5366 65.1169 31.6647 65.6907 31.7287C65.8819 31.7287 66.0732 31.9848 66.1369 31.6006C66.2007 31.3445 66.2007 31.2165 65.9457 31.0884C64.9257 30.3841 63.9694 29.6157 62.9494 28.9114C62.0569 28.3351 61.1007 27.8229 60.3357 26.9905C59.3157 25.902 58.1682 25.0055 56.702 24.5573C56.6382 24.5573 56.5107 24.5573 56.5107 24.4933C55.937 23.5969 54.8532 23.3408 54.152 22.7005C53.9607 22.5084 53.7057 22.3163 53.5145 22.3803C53.1957 22.4443 53.0682 22.3803 52.9407 22.1242C52.8132 21.9321 52.622 21.676 52.367 21.804C52.112 21.9321 52.0482 22.1882 52.112 22.4443C52.112 22.6364 52.3032 22.8926 52.112 23.0846C51.4745 23.5969 52.0482 24.5573 51.347 25.0055C51.347 25.0055 51.347 25.0696 51.347 25.1336C51.347 25.3897 51.4107 25.5818 51.0282 25.6458C50.7095 25.7099 50.7095 25.966 50.7732 26.1581C50.837 26.3502 50.837 26.4782 50.6457 26.5423C50.1357 26.7344 49.8807 27.3747 49.4345 27.7588ZM41.7207 31.2165C41.8482 31.6006 42.167 31.6647 42.3582 31.5366C43.1232 30.9603 44.0795 30.6402 44.717 29.8718C44.8445 29.7438 44.9082 29.4236 44.7807 29.4236C44.3982 29.5517 44.2707 29.1035 43.952 29.1035C43.3145 29.0394 42.8045 28.207 42.0395 28.6553C41.657 28.143 41.147 28.143 40.5732 28.207C40.5095 28.207 40.4457 28.143 40.382 28.079C40.127 27.6948 39.617 27.5027 39.1707 27.5667C39.0432 27.5667 38.852 27.6948 38.7882 27.5027C38.342 26.6703 37.1945 27.1185 36.7482 26.3502H36.6207C35.7282 26.6703 35.0907 26.2861 34.4533 25.902C34.0708 25.7099 33.8158 25.7099 33.497 25.966C33.0508 26.3502 32.4133 26.7344 31.967 26.7984C31.0108 26.9264 30.3733 27.6948 29.4808 27.8869C28.907 28.015 28.2695 28.3351 27.6958 28.3351C26.7395 28.3351 25.7195 28.2711 24.7633 28.3351C24.6995 28.3351 24.6358 28.079 24.5083 28.2711C24.3808 28.3991 24.5083 28.5272 24.6358 28.5912C25.1458 28.9114 25.337 29.4876 25.9108 29.7438C26.5483 30.0639 27.1858 30.3841 27.7595 30.7682C28.2058 31.0884 28.4608 31.0884 28.8433 30.7682C29.672 30.192 30.6283 29.9359 31.5845 29.7438C33.0508 29.4236 34.517 29.1035 35.9832 29.4876C37.2582 29.8078 38.7245 29.5517 39.872 30.3841C39.9995 30.4481 39.9357 30.7682 40.3182 30.7042C40.8282 30.5121 41.2107 31.0244 41.7207 31.2165ZM22.4683 26.7984C22.4683 26.7984 22.5958 26.8624 22.6595 26.8624C23.807 27.1826 24.8908 27.6308 26.2295 27.5027C27.9508 27.3747 29.417 26.7984 30.8833 26.0941C31.202 25.966 31.3933 25.7099 31.712 25.5818C31.8395 25.5178 32.0945 25.6458 32.0308 25.2617C32.0308 24.9415 31.8395 24.8775 31.6483 24.8135C30.5645 24.5573 29.672 23.9811 28.7158 23.5329C28.5245 23.4688 28.397 23.4688 28.3333 23.5969C28.0145 23.917 27.8233 23.6609 27.5683 23.5329C26.9945 23.2127 26.5483 22.3163 25.6558 22.8285C25.5283 22.8926 25.4645 22.7005 25.4645 22.5724C25.2095 22.1242 24.572 22.0602 24.4445 21.5479C24.3808 21.3558 24.2533 21.5479 24.1258 21.5479C23.807 21.5479 23.1695 21.5479 23.1695 21.4199C23.042 20.7796 22.4683 20.7796 22.022 20.6515C21.6395 20.5234 21.1933 20.6515 20.8745 20.2033C20.8108 20.0752 20.3008 20.2673 20.1733 19.8191C20.1733 19.7551 19.727 19.8831 19.7908 20.0112C19.982 20.5234 19.727 21.0357 19.8545 21.5479C20.0458 22.3803 20.3008 23.2127 20.747 23.9811C21.1933 25.0055 21.767 25.902 22.4683 26.7984ZM48.1595 26.4782C48.6057 26.1581 48.6057 25.5818 48.9245 25.1976C49.307 24.7494 48.9882 23.917 49.7532 23.5969C49.9445 23.5329 49.7532 23.3408 49.6257 23.2767C49.2432 23.0206 48.8607 23.0846 48.4782 23.0206C47.4582 22.9566 46.4382 22.7005 45.4182 22.6364C44.5895 22.5724 43.8882 22.8285 43.0595 22.7645C42.6132 22.7005 42.1032 22.7645 41.7207 22.8926C40.3182 23.3408 38.9157 23.853 37.4495 24.1732C37.322 24.2372 37.067 24.2372 37.067 24.4933C37.067 24.7494 37.322 24.6854 37.5132 24.7494C38.342 24.9415 39.2982 24.6854 40.0632 25.3257C40.5732 25.7099 41.402 25.5178 41.9757 26.0941C42.2307 26.3502 42.6132 26.6703 42.9957 26.0941C43.1232 25.902 43.2507 26.0941 43.3145 26.2221C43.442 26.3502 43.442 26.5423 43.697 26.5423C44.5257 26.5423 45.1632 27.1826 46.0557 27.3106C47.267 27.5027 47.267 27.6948 48.032 26.7984C48.0957 26.5423 48.1595 26.4782 48.1595 26.4782ZM41.2107 31.9848C40.7645 31.7927 40.5732 31.6006 40.2545 31.5366C39.9357 31.4085 39.4895 31.5366 39.362 31.4085C38.9157 30.7042 38.087 30.7682 37.4495 30.5121C36.8757 30.256 36.047 30.256 35.3457 30.192C34.7083 30.1279 34.007 30.192 33.3695 30.192C32.1583 30.256 30.947 30.3841 29.7995 30.8323C29.6083 30.8963 29.417 30.9603 29.417 31.2165C29.417 31.4726 29.5445 31.6647 29.7358 31.6647C30.3095 31.6647 30.692 32.1769 31.202 32.305C31.6483 32.369 32.1583 31.7927 32.5408 32.369C33.1783 31.8568 33.0508 32.5611 33.1783 32.8172C33.4333 32.8812 33.3695 32.369 33.6883 32.4971C34.4533 32.8812 35.3457 32.6891 36.1107 32.8172C37.9595 33.0093 39.4895 32.6251 41.2107 31.9848Z" fill="#BBB0DB"/>
<path d="M33.8158 15.5291C34.1345 15.7212 34.1345 15.8493 33.9433 16.1694C33.6245 16.6816 33.242 16.3615 32.9233 16.4255C32.9233 16.1694 32.8595 15.9133 33.0508 15.7212C33.242 15.4651 33.4333 15.0809 33.8158 15.5291Z" fill="#BBB0DB"/>
<path d="M28.397 14.7607C28.2058 14.6967 28.0145 14.5046 28.3333 14.3125C28.7158 14.0564 29.0983 13.9284 29.5445 14.1204C29.7358 14.1845 29.6083 14.4406 29.4808 14.4406C29.0983 14.5687 28.9708 15.337 28.397 14.7607Z" fill="#BBB0DB"/>
<path d="M28.397 10.4707C28.2058 10.4067 27.887 10.3427 28.2058 9.9585C28.5245 9.57432 28.7158 9.9585 28.9708 10.0225C29.162 10.0866 29.2895 10.2146 29.0983 10.4707C28.7795 10.8549 28.5883 10.8549 28.397 10.4707Z" fill="#BBB0DB"/>
<path d="M37.1945 9.76641C36.9395 10.2146 37.6407 10.1506 37.4495 10.5348C37.322 10.7909 37.0032 10.7269 36.7482 10.5348C36.4932 10.4067 36.4295 10.1506 36.557 9.9585C36.6207 9.70238 36.8757 9.83044 37.1945 9.76641Z" fill="#BBB0DB"/>
</svg>
