<svg width="65" height="48" viewBox="0 0 65 48" fill="none" xmlns="http://www.w3.org/2000/svg">
<path d="M10.5803 27.0817C8.64909 28.119 6.855 29.1944 4.96113 30.0936C4.18862 30.4431 3.5159 30.9689 2.80569 31.3061C2.33222 31.5309 2.13313 32.1587 2.07114 32.8246C2.00947 34.144 1.61128 35.3995 1.33771 36.6303C1.26307 36.9066 1.43766 37.1333 1.36302 37.4096C0.927347 38.4765 1.21453 39.5958 1.10289 40.6637C1.00375 41.7945 0.842291 42.9377 0.930064 44.0313C0.967864 44.8734 0.806249 45.6898 0.906356 46.5196C0.968983 47.1607 1.20588 47.375 1.79147 47.0626C2.6761 46.6254 3.71033 46.2892 4.42037 45.6252C4.96848 45.1242 5.59139 44.6736 6.22679 44.2859C7.08644 43.723 7.94608 43.16 8.74342 42.6095C9.65288 41.9712 10.6371 41.3835 11.5341 40.6824C12.157 40.2319 12.8422 39.7689 13.5524 39.4318C14.0259 39.207 14.3248 38.7554 14.7982 38.5306C15.3838 38.2182 15.8326 38.5212 16.2565 38.6984C16.4061 38.7994 16.6305 38.9509 16.7676 38.989C17.4904 39.0414 18.039 39.5206 18.6747 39.7864C19.0985 39.9636 19.5847 40.1285 20.0085 40.3057C20.9184 40.6477 21.9157 41.1032 22.8256 41.4452C23.4613 41.711 24.0472 42.0521 24.7826 42.1674C25.4431 42.2322 26.1038 42.6238 26.6274 42.9773C27.3629 43.4193 28.1356 43.3965 28.6337 42.644C29.0448 42.1048 29.381 41.5151 29.8045 41.0388C30.3899 40.3997 30.913 39.7729 31.4984 39.1337C32.0216 38.5069 32.5197 37.7543 33.0553 37.1904C33.5909 36.6265 34.0392 35.9492 34.5126 35.3976C34.9361 34.9213 35.2099 34.3441 35.7207 33.9811C36.5056 33.3677 36.8416 32.4513 37.4894 31.7997C37.9752 31.311 38.3114 30.7214 38.6601 30.1946C39.0586 29.5925 39.5194 28.9781 39.9927 28.4266C40.4162 27.9503 40.6901 27.373 41.1136 26.8967C41.6865 26.1947 42.2719 25.5555 42.7701 24.8029C43.4177 23.8246 44.2398 23.073 44.8251 22.1071C45.2111 21.4422 45.8963 20.9793 46.2823 20.3143C46.8053 19.3608 47.5652 18.6216 48.1504 17.6557C48.8353 16.5392 49.6075 15.5361 50.3672 14.4702C50.5167 14.2444 50.5913 13.9682 50.7407 13.7424C51.5004 12.6764 52.5843 11.9382 53.5186 11.099C54.7892 9.99688 56.0599 8.89476 57.343 7.85551C57.9535 7.34208 58.6262 6.81626 59.2491 6.3657C59.6976 6.01516 60.1834 5.52649 60.6319 5.17595C61.479 4.55012 62.0893 3.70993 62.9364 3.0841C63.3849 2.73356 63.6838 2.28203 63.9827 1.8305C64.431 1.1532 64.1441 0.687351 63.3215 0.458671C62.7107 0.318598 62.0877 0.442405 61.5019 0.428081C60.4675 0.437548 59.4831 0.698512 58.4985 0.632723C57.7134 0.592667 56.9409 0.942238 56.1182 0.713559C55.5075 0.573487 54.7225 0.860184 54.0121 0.870622C53.04 0.867708 52.1179 1.11629 51.2206 1.16387C49.3014 1.28379 47.4074 1.85621 45.4757 1.91326C45.214 1.89991 44.9898 2.07518 44.728 2.06183C43.594 2.2218 42.435 2.25603 41.3758 2.4665C39.8804 2.76364 38.4101 3.18652 36.8897 3.3579C36.5159 3.43219 36.2543 3.74559 35.7932 3.7065C35.3943 3.65504 34.9209 3.87983 34.547 3.95412C33.2511 4.27698 31.9799 4.39885 30.684 4.72171C29.9986 4.8579 29.2759 5.13222 28.4783 5.02929C28.0296 5.05308 27.3941 5.11401 27.0079 5.45217C26.7836 5.62744 26.5467 5.41309 26.2352 5.47499C25.4252 5.63594 24.5779 5.93501 23.7429 5.97021C22.397 6.04158 21.2881 6.65406 20.0295 6.8388C19.6557 6.91308 19.3068 7.11311 18.8582 7.1369C17.2132 7.33305 15.5809 7.91882 13.9609 8.24072C13.2132 8.38929 12.4157 8.61311 11.668 8.76168C11.4811 8.79882 11.2444 8.91122 11.1073 8.8731C10.4092 8.61966 10.1852 9.12169 9.94859 9.56084C9.33849 10.7278 8.7907 11.8823 8.09331 12.9359C7.44574 13.9142 6.92277 14.8678 6.4123 15.8842C6.0761 16.4739 5.49051 16.7863 5.36622 17.4646C5.22943 18.0799 4.58153 18.4048 4.30764 18.982C4.07106 19.4212 3.70988 19.8851 3.61041 20.3624C3.49845 20.7767 3.12461 20.851 2.92535 21.152C2.73859 21.5159 2.61414 21.8675 2.42737 22.2314C2.10367 22.8839 1.61786 23.3726 1.43126 24.0632C1.28198 24.6157 1.31946 24.8043 1.88038 25.0197C2.92743 25.3998 4.04911 25.5037 5.07117 25.7581C6.50455 26.1269 7.95026 26.2318 9.34632 26.7387C9.75765 26.853 10.1565 26.9045 10.5803 27.0817ZM62.861 1.7266C61.5903 2.82872 60.382 3.91846 59.2235 4.93294C58.4013 5.68452 57.3297 6.15887 56.6199 7.14957C56.57 7.22482 56.4454 7.24958 56.3208 7.27434C55.6481 7.80016 54.9629 8.2631 54.3026 8.85179C54.0286 9.10231 53.7545 9.35284 53.493 9.66624C53.1318 10.1301 52.4837 10.1282 52.11 10.5292C51.6367 11.0808 51.1011 11.6447 50.5405 12.0829C48.5972 13.7108 46.579 15.2883 44.5608 16.8657C44.2244 17.1286 43.7385 17.2905 43.5267 17.5287C42.9538 18.2307 42.1688 18.5174 41.5709 19.0937C40.5245 20.0206 39.1539 20.6197 38.12 21.6094C37.958 21.7723 37.7961 21.9352 37.6092 21.9724C37.1107 22.0714 36.7245 22.4096 36.4007 22.7354C35.5785 23.4869 34.5318 23.7603 33.7844 24.5624C33.1367 25.2139 32.1896 25.3367 31.467 25.9378C30.8068 26.5265 30.0218 26.8132 29.3491 27.339C28.7885 27.7772 28.1406 28.102 27.5675 28.4773C26.658 29.1155 25.7486 29.7537 24.8266 30.3291C24.5401 30.5167 24.1662 30.591 23.9545 30.8291C22.8583 31.8313 21.5625 32.4809 20.379 33.3696C19.3574 34.0954 18.261 34.7708 17.1646 35.4462C16.4171 35.9215 15.6821 36.4597 14.9346 36.935C13.8507 37.6732 12.7918 38.5372 11.7079 39.2754C10.7361 39.926 9.77685 40.6395 8.81758 41.3529C7.85831 42.0664 6.73694 42.616 5.77767 43.3295C4.69379 44.0677 3.5351 44.7554 2.45122 45.4937C2.3391 45.5813 2.17716 45.7442 2.02756 45.6432C1.87796 45.5422 1.90279 45.3412 1.92761 45.1402C1.95228 44.6125 2.16387 44.0476 2.07642 43.6074C1.95148 42.9787 2.15058 42.3509 2.10044 41.7727C2.05031 41.1944 2.2494 40.5666 2.27407 40.0389C2.34855 39.4359 2.49783 38.8834 2.49751 38.2298C2.47221 37.4506 2.75844 36.6094 2.79544 35.8178C2.79496 34.8375 3.06869 33.9335 3.14301 33.0038C3.18017 32.5389 3.36693 32.175 3.7781 31.9626C4.35119 31.5873 5.02407 31.3882 5.49738 30.8366C5.77144 30.5861 6.28239 30.55 6.55644 30.2994C7.37861 29.5478 8.33804 29.1611 9.27248 28.6487C10.1446 28.1486 11.0417 27.7743 11.9264 27.3371C12.811 26.8998 13.6582 26.274 14.6301 25.9502C15.5895 25.5635 16.3619 24.8871 17.3088 24.4376C18.7292 23.7632 20.0248 22.7868 21.358 21.9991C22.2301 21.499 23.1645 20.9865 24.1115 20.5369C24.4728 20.3998 24.5848 19.9854 24.9586 19.9111C25.7686 19.7501 26.354 19.111 27.2263 18.9376C27.6625 18.851 28.086 18.3747 28.4972 18.1623C29.0827 17.8498 29.6808 17.6003 30.2664 17.2879C31.3878 16.7382 32.4966 16.1258 33.618 15.5762C34.378 15.1637 35.1256 14.6884 35.8981 14.3388C36.4961 14.0893 37.0194 13.7892 37.605 13.4768C38.1906 13.1644 38.7512 12.7262 39.3991 12.4014C40.3336 11.8889 41.2182 11.4517 42.1651 11.0021C42.9251 10.5897 43.76 10.2277 44.4577 9.82766C45.1554 9.4276 45.9654 9.26665 46.5758 8.75322C47.0741 8.32742 47.7595 8.19123 48.345 7.8788C48.8808 7.64163 49.3293 7.29109 49.9399 7.10441C50.6128 6.90535 51.2357 6.45479 51.8836 6.12998C53.0547 5.50512 54.3132 4.99363 55.4969 4.43164C56.7927 3.78202 58.2756 3.42202 59.5838 2.83527C60.6181 2.49905 61.7146 2.15045 62.861 1.7266ZM2.70239 23.9413C2.98878 23.4269 3.15055 22.9373 3.46193 22.5486C4.22162 21.4827 4.83172 20.3157 5.51662 19.1993C6.00226 18.3839 6.55021 17.5561 7.03585 16.7407C7.47168 16.0005 7.7704 15.2222 8.15642 14.5573C8.92845 13.2275 9.63817 11.91 10.4102 10.5802C10.846 9.84001 11.3445 9.74096 12.0299 9.60478C12.7152 9.46859 13.3881 9.26953 14.086 9.19622C14.8337 9.04765 15.5689 8.83621 16.3041 8.62477C16.9769 8.4257 17.6873 8.41527 18.3602 8.21621C19.0331 8.01715 19.7683 7.8057 20.4536 7.66952C22.5721 7.24858 24.678 6.76476 26.8089 6.40669C27.943 6.24672 29.1143 5.94861 30.2358 5.72576C31.295 5.51529 32.292 5.3172 33.3512 5.10673C34.8465 4.8096 36.3296 4.77634 37.7875 4.29058C38.3357 4.11628 38.9465 4.25635 39.5446 4.0068C39.9059 3.86964 40.2922 3.85823 40.6786 3.84682C41.3141 3.78589 41.9122 3.53634 42.473 3.42491C43.283 3.26396 44.1179 3.22876 44.8656 3.0802C46.0495 2.84497 47.2583 2.73548 48.3923 2.57551C49.14 2.42694 49.8504 2.4165 50.5482 2.34319C51.109 2.23176 51.6697 2.12034 52.2555 2.13466C53.0282 2.11184 53.7883 2.02615 54.5485 1.94046C55.1841 1.87953 55.882 1.80621 56.505 1.68241C57.639 1.52243 58.7357 1.50058 59.8573 1.27773C60.3557 1.17869 60.8044 1.1549 61.3153 1.11873C60.2687 1.71882 59.2097 2.25605 58.1256 2.66752C57.0043 3.21713 55.8952 3.50285 54.8112 3.91433C54.3875 4.06386 53.9639 4.2134 53.5527 4.42582C52.1821 5.02494 50.824 5.68694 49.3537 6.10983C47.4098 6.7575 45.4909 7.53093 43.6219 8.2291C42.1765 8.77773 40.7061 9.20061 39.348 9.86262C38.2765 10.337 37.1799 10.6856 36.1707 11.1475C34.4387 11.8838 32.6818 12.4943 30.9374 13.1678C29.2054 13.904 27.5108 14.5022 25.7664 15.1756C24.6325 15.6623 23.4862 16.0862 22.3398 16.51C21.5548 16.7967 20.8696 17.2597 20.1219 17.4082C19.0004 17.6311 17.9538 18.2312 16.9321 18.6303C15.3746 19.2666 13.8171 19.9028 12.272 20.602C10.3782 21.5011 8.28471 22.0478 6.30354 22.8336C5.70546 23.0832 4.9826 23.0308 4.4095 23.4061C3.83641 23.7814 3.35045 23.9433 2.70239 23.9413ZM48.8345 14.9054C48.4612 15.96 47.7761 16.7497 47.2282 17.5775C46.6304 18.4805 45.908 19.4084 45.2354 20.2609C44.5131 21.1888 43.9278 22.1547 43.1181 22.9691C42.4704 23.6207 41.9224 24.4485 41.362 25.2134C40.8141 26.0412 40.0417 26.7176 39.4938 27.5454C39.1949 27.9969 38.8212 28.3979 38.46 28.8618C37.8248 29.5763 37.177 30.2278 36.7537 31.0309C36.4673 31.5453 36.0313 31.9587 35.6576 32.3597C34.9726 33.1494 34.5867 34.1411 33.6648 34.7164C33.6648 34.7164 33.6773 34.7793 33.6274 34.8546C33.1791 35.5319 32.5937 36.171 32.1329 36.7855C31.6721 37.3999 31.0616 37.9133 30.6756 38.5782C30.2523 39.3813 29.5173 39.9195 29.0316 40.7349C28.7452 41.2493 28.1098 41.637 27.8234 42.1514C27.5371 42.6658 27.3002 42.4514 27.0135 42.3123C26.1533 41.895 25.2682 41.352 24.4206 40.9976C23.3735 40.6174 22.4634 39.9486 21.3791 39.7066C19.9457 39.3378 18.6741 38.4794 17.2157 37.9849C16.9415 37.9087 16.5427 37.8572 16.3306 37.4419C16.717 37.4305 16.9412 37.2552 17.2402 37.1304C17.7635 36.8304 18.2618 36.4046 18.8599 36.155C19.3957 35.9178 19.9938 35.6683 20.492 35.2425C21.0277 34.6786 21.7254 34.2785 22.3358 33.7651C22.8341 33.3393 23.4945 33.0773 24.0676 32.702C24.3541 32.5144 24.5409 32.1505 24.8399 32.0257C25.9613 31.4761 26.9331 30.8255 27.9546 30.0997C28.8641 29.4614 29.7611 28.7604 30.683 28.185C31.4305 27.7097 32.1531 27.1086 32.8881 26.5704C33.7976 25.9322 34.6322 25.2435 35.5417 24.6053C36.4511 23.9671 37.4604 23.5051 38.3573 22.8041C39.0924 22.2659 39.9022 21.7782 40.6247 21.1771C41.0732 20.8266 41.5342 20.5389 41.9204 20.2007C42.1944 19.9502 42.3937 19.6492 42.7425 19.4491C43.2533 19.0862 43.7641 18.7233 44.2749 18.3604C44.6736 18.0851 45.0597 17.7469 45.4584 17.4716C46.0315 17.0963 46.5173 16.6077 47.0904 16.2324C47.6635 15.8571 48.2116 15.356 48.8345 14.9054ZM4.34768 24.3987C4.33518 24.3358 4.32269 24.273 4.3102 24.2101C4.98308 24.011 5.60599 23.5605 6.24155 23.4995C6.87711 23.4386 7.3879 23.0757 7.93617 22.9014C8.9704 22.5652 9.91734 22.1156 10.9391 21.7165C11.9608 21.3174 13.1446 21.0821 14.1539 20.6202C15.051 20.2458 15.998 19.7963 16.8951 19.4219C18.1536 18.9104 19.4868 18.4494 20.7453 17.9379C21.5801 17.576 22.4149 17.214 23.2622 16.915C24.4086 16.4911 25.6048 15.992 26.7511 15.5681C27.9598 15.1319 29.2182 14.6204 30.4019 14.0584C31.4735 13.5841 32.5575 13.1726 33.5793 12.7735C34.0029 12.624 34.2645 12.3106 34.6881 12.161C35.6725 11.9001 36.6445 11.5762 37.6537 11.1143C38.7128 10.5771 39.8966 10.3418 41.043 9.91797C41.641 9.66841 42.2641 9.5446 42.8372 9.1693C43.0116 9.06928 43.2484 8.95689 43.3606 9.19601C43.4729 9.43512 43.1614 9.49702 43.0368 9.52179C42.3391 9.92185 41.6289 10.259 40.8564 10.6086C39.7973 11.1458 38.6884 11.7583 37.6294 12.2955C36.6326 12.8204 35.6484 13.4081 34.5643 13.8196C34.203 13.9567 33.9789 14.4588 33.4803 14.231C32.9696 14.9207 32.1223 15.2198 31.4121 15.557C30.6396 15.9066 29.9046 16.4448 29.0573 16.7438C27.9732 17.1553 27.0015 17.8059 26.0047 18.3307C24.8335 18.9556 23.6624 19.5805 22.5037 20.2682C21.6938 20.7559 20.8217 21.256 19.9994 21.6808C19.7626 21.7932 19.3763 21.8046 19.2144 21.9675C18.4918 22.5686 17.657 22.9305 16.897 23.343C15.7881 23.9554 14.6793 24.5679 13.5829 25.2433C13.0098 25.6186 12.499 25.9815 11.8884 26.1682C10.8417 26.4415 9.80698 25.7975 8.84723 25.5307C8.02458 25.302 7.16446 24.8847 6.27951 24.6684C5.63146 24.6665 5.02072 24.5264 4.34768 24.3987Z" fill="#BBB0DB"/>
<path d="M8.65405 38.2483C9.06505 37.7091 9.72544 37.4472 10.2237 37.0214C10.9463 36.4203 11.7436 35.8698 12.5534 35.3821C13.301 34.9067 13.9487 34.2552 14.6962 33.7799C15.4562 33.3674 16.104 32.7159 16.8765 32.3663C17.35 32.1415 17.7111 31.6776 18.1721 31.3899C19.0941 30.8146 19.991 30.1135 20.8382 29.4877C21.6853 28.8618 22.52 28.1731 23.4419 27.5978C23.9029 27.3101 24.2516 26.7833 24.8872 26.7224C25.0118 26.6976 25.1986 26.3337 25.3605 26.1709C25.7467 25.8327 26.2076 25.545 26.6188 25.3326C27.2044 25.0202 27.5406 24.4305 28.201 24.1686C28.8614 23.9067 29.4968 23.519 29.9951 23.0932C30.7051 22.4292 31.7518 22.1559 32.3746 21.3786C32.6362 21.0652 32.9477 21.0033 33.2342 20.8156C33.8571 20.3651 34.5175 20.1031 35.1404 19.6526C35.7135 19.2773 36.2741 18.8391 36.9095 18.4514C37.844 17.9389 38.6911 17.3131 39.6256 16.8006C40.3856 16.3882 41.1331 15.9129 41.8308 15.5128C43.463 14.6003 45.0951 13.6878 46.7148 12.7124C47.5744 12.1494 48.5962 11.7503 49.4433 11.1245C50.1286 10.6615 50.8138 10.1986 51.4367 9.74805C51.5488 9.66041 51.6609 9.57278 51.4988 9.40891C51.4115 9.29555 51.2994 9.38318 51.2496 9.45844C50.8136 9.87185 50.2778 10.109 49.8044 10.3338C48.6332 10.9587 47.5618 11.7598 46.2285 12.2208C45.5058 12.4951 44.8954 13.0085 44.1977 13.4086C43.5623 13.7963 42.8396 14.0706 42.2167 14.5211C41.4194 15.0717 40.5347 15.5089 39.6626 16.009C38.7406 16.5843 37.8437 17.2854 36.8344 17.7474C36.361 17.9722 35.9125 18.3227 35.3892 18.6228C34.8659 18.9228 34.3301 19.16 33.8941 19.5734C33.2837 20.0869 32.586 20.4869 31.9506 20.8746C30.9664 21.4623 30.0071 22.1758 29.0353 22.8264C27.9514 23.5646 26.9424 24.3533 25.7837 25.0411C24.9738 25.5288 24.3136 26.1175 23.5786 26.6556C22.7314 27.2815 21.772 27.6682 21.0994 28.5208C20.8379 28.8342 20.3519 28.9961 19.9407 29.2085C19.1932 29.6838 18.4707 30.2849 17.7232 30.7602C16.415 31.6737 15.0446 32.5996 13.7615 33.6388C13.0389 34.2399 12.1293 34.5513 11.4816 35.2029C10.4975 36.1174 9.30131 36.6165 8.30471 37.4681C7.80642 37.8939 7.27064 38.1311 6.83465 38.5445C6.67272 38.7074 6.68521 38.7702 6.77251 38.8836C6.8598 38.997 6.9346 39.0475 7.04672 38.9598C7.6448 38.7103 8.10578 38.4226 8.65405 38.2483Z" fill="#BBB0DB"/>
<path d="M9.77222 31.1637C9.47318 31.2884 9.56047 31.4018 9.66026 31.578C9.84734 31.8676 10.0592 31.9563 10.3333 31.7057C10.4952 31.5428 10.6697 31.4428 10.4951 31.2161C10.2707 31.0646 10.0338 30.8503 9.77222 31.1637Z" fill="#BBB0DB"/>
<path d="M32.9967 19.2943C32.9467 19.0428 33.146 18.7417 32.8095 18.6779C32.6724 18.6398 32.3733 18.7646 32.3983 18.8903C32.4483 19.1418 32.7598 19.0799 32.9967 19.2943Z" fill="#BBB0DB"/>
<path d="M50.1378 4.18937C49.9383 3.83688 49.5769 3.97404 49.39 4.01118C47.7077 4.34546 46.0253 4.35298 44.4053 4.67488C43.2838 4.89773 42.1497 5.0577 41.0157 5.21768C40.0188 5.41577 39.0094 5.55099 38.0125 5.74908C37.4517 5.8605 36.8038 6.18531 36.2804 6.15861C35.2335 6.1052 34.2741 6.49191 33.2647 6.62713C32.193 6.77472 31.0839 7.06045 30.0247 7.27092C29.2147 7.43187 28.3674 7.73094 27.5324 7.76614C27.1959 7.7023 26.8221 7.77658 26.4732 7.97661C26.1244 8.17664 25.6757 8.20043 25.2894 8.21184C24.3423 8.33468 23.4452 8.70901 22.4981 8.83185C21.4139 8.91657 20.4046 9.37854 19.2831 9.60139C18.2239 9.81186 17.1273 10.1605 16.0058 10.3833C15.3204 10.5195 14.5977 10.7938 13.8874 10.8042C13.7503 10.7661 13.5634 10.8033 13.4762 11.0167C13.3891 11.23 13.2895 11.3806 13.6758 11.3691C14.6479 11.3721 15.6075 11.3121 16.5171 11.0006C16.9407 10.8511 17.3769 10.7644 17.7507 10.6902C19.0842 10.5559 20.2928 10.1197 21.5265 9.80919C22.3863 9.57299 23.2836 9.52541 24.2057 9.27682C25.1153 8.96537 26.0874 8.96828 27.0095 8.7197C27.9441 8.53399 28.8787 8.34828 29.8008 8.09969C30.5983 7.87587 31.4208 7.7778 32.2931 7.60447C33.1529 7.36827 34.1 7.24543 34.9723 7.0721C35.9692 6.87401 36.9786 6.7388 37.9755 6.54071C39.097 6.31786 40.231 6.15788 41.3276 5.80928C41.8759 5.63498 42.5239 5.63693 43.147 5.51312C44.3308 5.27789 45.5396 5.16841 46.7983 4.98367C47.7454 4.86083 48.7173 4.53699 49.6769 4.47703C49.789 4.3894 49.9509 4.22651 50.1378 4.18937Z" fill="#BBB0DB"/>
<path d="M12.1306 11.7415C12.1679 11.6034 12.4172 11.5539 12.1928 11.4024C12.0432 11.3014 11.9059 10.9365 11.5695 11.1995C11.4574 11.2871 11.2207 11.3995 11.4576 11.6138C11.682 11.7653 11.9437 11.7787 12.1306 11.7415Z" fill="#BBB0DB"/>
<path d="M25.9525 38.9285C25.8777 38.878 25.9773 38.7275 25.7654 38.6389C24.4566 38.2454 23.1604 37.9148 21.8266 37.3955C21.4776 37.2688 21.0663 37.1544 20.7172 37.0277C20.5178 37.002 20.3309 37.0391 20.2811 37.1144C20.1815 37.2649 20.3934 37.3535 20.6053 37.4421C21.3158 37.7584 22.0761 37.9995 22.8115 38.1148C23.684 38.2682 24.4445 38.836 25.3542 38.8513C25.5661 38.9399 25.7656 38.9657 25.9525 38.9285Z" fill="#BBB0DB"/>
<path d="M31.2582 32.0575C31.2579 31.404 30.8839 31.1515 30.4974 30.8362C30.3353 30.6723 30.0611 30.5961 29.8368 30.7714C29.7247 30.859 29.6251 31.0095 29.5129 31.0972C29.675 31.261 29.8371 31.4249 30.049 31.5135C30.5227 31.6154 30.9215 31.6669 31.2582 32.0575Z" fill="#BBB0DB"/>
<path d="M27.1099 35.6268C27.2721 36.1174 27.7581 35.9555 27.9325 35.8555C28.2316 35.7307 27.8451 35.4153 27.9197 35.1391C27.5832 35.0752 27.3088 34.6723 27.0223 34.8599C26.6859 35.1228 26.873 35.4124 27.1099 35.6268Z" fill="#BBB0DB"/>
</svg>
