<svg width="46" height="46" viewBox="0 0 46 46" fill="none" xmlns="http://www.w3.org/2000/svg">
<path d="M0.867277 34.6523C1.06728 33.0523 2.06728 31.7523 2.96728 30.6523C3.76728 29.6523 4.36728 28.3523 5.06728 27.2523C5.76728 26.1523 6.76728 25.1523 7.06728 23.8523C7.16728 23.4523 7.76728 23.0523 8.16728 22.6523C8.66728 22.1523 8.86728 21.5523 9.46728 21.2523C10.5673 20.5523 9.76728 19.7523 9.36728 19.0523C8.46728 17.6523 6.96728 16.7523 5.86728 15.4523C5.06728 14.5523 4.36728 13.4523 3.66728 12.3523C3.46728 12.0523 3.26728 11.7523 3.06728 11.5523C2.46728 11.0523 2.06728 10.7523 2.66728 9.85225C3.26728 8.95226 3.66728 9.05225 4.66728 9.25225C5.76728 9.45225 6.86728 10.0523 7.76728 9.95225C9.36728 9.65225 10.7673 10.4523 12.1673 10.7523C13.0673 10.9523 13.9673 11.5523 14.8673 11.8523C15.4673 12.0523 15.7673 11.9523 16.1673 11.4523C16.7673 10.6523 17.3673 9.85225 17.9673 9.15226C18.3673 8.65226 18.8673 8.05225 19.4673 7.55225C20.3673 6.85225 21.1673 6.05225 21.3673 4.85225C21.3673 4.65225 21.5673 4.35225 21.6673 4.35225C23.0673 4.25225 23.3673 2.75225 24.5673 2.25225C25.2673 1.95225 25.9673 1.15225 26.3673 0.452254C26.6673 -0.0477457 27.0673 -0.0477458 27.3673 0.0522542C27.8673 0.152254 28.2673 0.352254 28.2673 0.952254C28.2673 1.65225 28.3673 2.25225 28.2673 2.95225C28.0673 4.45225 28.1673 5.95225 27.9673 7.55225C27.6673 9.15225 27.8673 10.8523 27.7673 12.5523C27.6673 14.0523 28.1673 14.6523 29.3673 15.1523C31.1673 15.9523 32.8673 16.8523 34.4673 17.8523C35.4673 18.4523 36.5673 18.7523 37.4673 19.5523C37.9673 19.9523 38.6673 20.2523 39.2673 20.5523C41.2673 21.3523 42.6673 22.9523 44.4673 23.8523C45.2673 24.2523 45.1673 24.6523 44.4673 25.1523C43.1673 26.1523 41.5673 25.6523 40.1673 25.6523C38.7673 25.6523 37.4673 25.9523 36.0673 26.1523C34.5673 26.3523 33.0673 26.6523 31.5673 26.8523C30.5673 26.9523 29.6673 27.4523 28.5673 27.3523C27.9673 27.3523 27.7673 28.2523 27.7673 28.4523C27.7673 31.1523 27.2673 33.7523 26.9673 36.3523C26.7673 38.5523 26.5673 40.7523 26.4673 42.9523C26.4673 43.3523 26.5673 43.9523 26.5673 44.3523C26.5673 44.8523 26.6673 45.5523 26.0673 45.6523C25.5673 45.7523 25.0673 45.7523 24.5673 45.3523C23.5673 44.6523 23.0673 43.4523 22.9673 42.6523C22.7673 41.0523 21.6673 40.0523 21.1673 38.6523C20.8673 37.9523 20.8673 37.1523 20.4673 36.4523C20.0673 35.6523 19.9673 34.7523 19.1673 34.2523C18.9673 34.1523 18.7673 33.9523 18.7673 33.5523C19.0673 31.8523 17.5673 30.7523 17.3673 29.2523C17.3673 29.0523 17.1673 28.9523 17.0673 29.0523C15.8673 30.1523 13.9673 30.0523 12.6673 31.1523C11.7673 31.8523 10.3673 31.9523 9.36728 32.7523C7.56728 33.9523 5.46728 34.5523 3.66728 35.5523C2.86728 35.9523 2.16728 36.2523 1.36728 36.5523C0.867277 36.7523 0.367277 36.9523 0.067277 36.6523C-0.132723 36.4523 0.167277 35.8523 0.267277 35.4523C0.367277 35.1523 0.867277 35.0523 0.867277 34.6523ZM29.1673 16.8523C28.3673 16.3523 27.3673 15.6523 26.3673 14.9523C25.9673 14.6523 25.6673 14.4523 25.7673 13.7523C25.9673 12.8523 26.0673 11.9523 26.1673 11.0523C26.1673 10.5523 25.5673 10.4523 25.9673 9.85225C26.5673 8.85225 25.7673 7.55225 26.5673 6.55225C26.6673 6.45225 26.4673 6.25225 26.4673 6.15225C26.1673 5.55225 26.0673 4.95225 26.4673 4.35225C26.5673 4.25225 26.8673 3.55225 26.3673 3.35225C25.8673 3.15225 25.6673 3.55225 25.4673 3.85225C24.5673 4.85225 23.4673 5.65225 22.6673 6.75225C21.8673 7.75225 20.7673 8.25225 20.0673 9.25225C19.8673 9.65225 19.8673 10.2523 19.3673 10.3523C18.3673 10.6523 17.8673 11.4523 17.2673 12.1523C15.9673 13.6523 14.8673 13.8523 13.0673 13.1523C11.9673 12.7523 10.8673 12.2523 9.76728 12.4523C8.66728 12.6523 7.96728 10.5523 6.76728 12.0523C6.76728 12.0523 6.66728 11.9523 6.56728 11.9523C6.36728 11.8523 6.06728 11.6523 5.96728 11.8523C5.76728 12.1523 6.06728 12.3523 6.16728 12.5523C6.36728 12.7523 6.46728 12.9523 6.66728 13.2523C7.76728 15.3523 9.76728 16.6523 11.1673 18.4523C11.3673 18.7523 12.0673 18.6523 11.9673 19.2523C11.9673 19.8523 12.0673 20.5523 11.7673 20.8523C10.5673 22.0523 10.0673 23.6523 8.96728 24.8523C6.76728 27.2523 5.76728 30.4523 3.66728 32.8523C3.56728 33.0523 3.46728 33.2523 3.56728 33.3523C3.76728 33.6523 3.86728 33.3523 4.06728 33.2523C5.76728 32.6523 7.16728 31.6523 8.66728 30.8523C9.96728 30.1523 11.1673 29.2523 12.4673 28.7523C13.4673 28.3523 14.4673 27.7523 15.6673 27.5523C16.6673 27.3523 17.4673 26.2523 18.6673 27.3523C18.8673 27.5523 19.0673 27.2523 18.9673 27.7523C18.8673 28.4523 18.7673 29.3523 19.7673 29.5523C20.2673 29.6523 19.9673 29.7523 19.9673 29.9523C19.9673 31.1523 20.0673 32.3523 21.3673 32.9523C21.5673 33.0523 21.5673 33.3523 21.4673 33.4523C21.2673 33.8523 21.4673 34.1523 21.5673 34.4523C21.7673 36.0523 23.0673 37.2523 23.5673 38.8523C23.7673 39.4523 23.9673 40.2523 24.4673 40.8523C24.5673 40.9523 24.5673 41.1523 24.7673 41.0523C24.8673 41.0523 24.9673 40.9523 24.9673 40.8523C24.7673 39.9523 24.9673 39.1523 25.1673 38.2523C25.6673 36.4523 25.3673 34.5523 25.6673 32.6523C25.9673 31.1523 25.9673 29.4523 25.8673 27.8523C25.8673 27.1523 26.0673 26.5523 26.8673 26.2523C28.5673 25.5523 30.3673 25.4523 32.1673 25.1523C33.6673 24.8523 35.0673 24.6523 36.5673 24.5523C36.9673 24.5523 37.1673 24.2523 37.7673 24.2523C38.8673 24.3523 39.9673 24.5523 41.0673 24.2523C41.2673 24.2523 41.5673 24.2523 41.4673 23.9523C41.4673 23.7523 41.2673 23.6523 41.0673 23.5523C39.6673 22.6523 38.1673 22.0523 36.6673 21.3523C35.8673 20.9523 35.3673 20.1523 34.5673 19.8523C33.0673 18.9523 31.2673 17.9523 29.1673 16.8523Z" fill="#BBB0DB"/>
<path d="M20.9673 18.1523C20.8673 18.4523 20.6673 18.5523 20.2673 18.4523C19.8673 18.2523 19.3673 16.5523 19.6673 16.2523C19.8673 15.9523 20.2673 16.0523 20.5673 16.1523C20.9673 16.1523 21.1673 17.7523 20.9673 18.1523Z" fill="#BBB0DB"/>
<path d="M22.0673 23.0523C22.6673 22.1523 23.2673 22.2523 23.6673 23.1523C23.1673 23.6523 22.5673 23.5523 22.0673 23.0523Z" fill="#BBB0DB"/>
</svg>
