<svg width="15" height="18" viewBox="0 0 15 18" fill="none" xmlns="http://www.w3.org/2000/svg">
<path d="M12.75 6V5.25C12.75 3.85761 12.1969 2.52226 11.2123 1.53769C10.2277 0.553124 8.89239 0 7.5 0C6.10761 0 4.77226 0.553124 3.78769 1.53769C2.80312 2.52226 2.25 3.85761 2.25 5.25V6H0V15.75C0 16.3467 0.237053 16.919 0.65901 17.341C1.08097 17.7629 1.65326 18 2.25 18H12.75C13.3467 18 13.919 17.7629 14.341 17.341C14.7629 16.919 15 16.3467 15 15.75V6H12.75ZM3.75 5.25C3.75 4.25544 4.14509 3.30161 4.84835 2.59835C5.55161 1.89509 6.50544 1.5 7.5 1.5C8.49456 1.5 9.44839 1.89509 10.1517 2.59835C10.8549 3.30161 11.25 4.25544 11.25 5.25V6H3.75V5.25ZM13.5 15.75C13.5 15.9489 13.421 16.1397 13.2803 16.2803C13.1397 16.421 12.9489 16.5 12.75 16.5H2.25C2.05109 16.5 1.86032 16.421 1.71967 16.2803C1.57902 16.1397 1.5 15.9489 1.5 15.75V7.5H13.5V15.75Z" fill="#5751E1"/>
<path d="M8.25002 10.4998H6.75001V13.4998H8.25002V10.4998Z" fill="#5751E1"/>
</svg>
